%
M48
M72
T01C0.0236
T02C0.0276
T03C0.0320
T04C0.0354
T05C0.0400
T06C0.1180
%
T01
X11000Y8180
X15500Y8180
X15500Y4180
X7500Y14680
X7500Y16180
T02
X6000Y15680
X5000Y15680
X8000Y13680
X8000Y12680
T03
X10000Y12180
X10000Y13180
X10000Y14180
X10000Y15180
X10000Y16180
X10000Y17180
X10000Y18180
X10000Y19180
X10000Y20180
X10000Y21180
X13000Y21180
X13000Y20180
X13000Y19180
X13000Y18180
X13000Y17180
X13000Y16180
X13000Y15180
X13000Y14180
X13000Y13180
X13000Y12180
X13000Y11180
X13000Y10180
X13000Y9180
X13000Y8180
X10000Y8180
X10000Y9180
X10000Y10180
X10000Y11180
X18000Y12180
X19000Y12180
X19000Y7680
X18000Y7680
X18000Y3680
X19000Y3680
T04
X20500Y5430
X20500Y1680
X16500Y1680
X16500Y5430
X16500Y9680
X20500Y9680
X7000Y17680
X3000Y17680
T05
X3000Y9680
X3000Y10680
X3000Y11680
X3000Y12680
X3000Y13680
X3000Y14680
X10500Y4180
X10500Y3180
X11500Y3180
X11500Y4180
X12500Y4180
X12500Y3180
X19000Y15180
X19000Y16180
X19000Y17180
X19000Y18180
X19000Y19180
X19000Y20180
X19000Y21180
X19000Y22180
T06
X5894Y21680
X4713Y19830
X3531Y21680
M30
