G75*
%MOIN*%
%OFA0B0*%
%FSLAX24Y24*%
%IPPOS*%
%LPD*%
%AMOC8*
5,1,8,0,0,1.08239X$1,22.5*
%
%ADD10C,0.0730*%
%ADD11C,0.1780*%
%ADD12OC8,0.0820*%
%ADD13R,0.0820X0.0820*%
%ADD14C,0.0820*%
%ADD15C,0.0640*%
%ADD16C,0.0516*%
D10*
X008000Y012680D03*
X008000Y013680D03*
X006000Y015680D03*
X005000Y015680D03*
D11*
X004713Y019830D03*
X005894Y021680D03*
X003531Y021680D03*
D12*
X010500Y004180D03*
X010500Y003180D03*
X011500Y003180D03*
X011500Y004180D03*
X012500Y004180D03*
X012500Y003180D03*
D13*
X019000Y015180D03*
D14*
X003000Y009680D03*
X003000Y010680D03*
X003000Y011680D03*
X003000Y012680D03*
X003000Y013680D03*
X003000Y014680D03*
X003000Y017680D03*
X007000Y017680D03*
X016500Y009680D03*
X018000Y007680D03*
X019000Y007680D03*
X020500Y009680D03*
X019000Y012180D03*
X018000Y012180D03*
X019000Y016180D03*
X019000Y017180D03*
X019000Y018180D03*
X019000Y019180D03*
X019000Y020180D03*
X019000Y021180D03*
X019000Y022180D03*
X020500Y005430D03*
X019000Y003680D03*
X018000Y003680D03*
X016500Y005430D03*
X016500Y001680D03*
X020500Y001680D03*
D15*
X013280Y008180D02*
X012720Y008180D01*
X012720Y009180D02*
X013280Y009180D01*
X013280Y010180D02*
X012720Y010180D01*
X012720Y011180D02*
X013280Y011180D01*
X013280Y012180D02*
X012720Y012180D01*
X012720Y013180D02*
X013280Y013180D01*
X013280Y014180D02*
X012720Y014180D01*
X012720Y015180D02*
X013280Y015180D01*
X013280Y016180D02*
X012720Y016180D01*
X012720Y017180D02*
X013280Y017180D01*
X013280Y018180D02*
X012720Y018180D01*
X012720Y019180D02*
X013280Y019180D01*
X013280Y020180D02*
X012720Y020180D01*
X012720Y021180D02*
X013280Y021180D01*
X010280Y021180D02*
X009720Y021180D01*
X009720Y020180D02*
X010280Y020180D01*
X010280Y019180D02*
X009720Y019180D01*
X009720Y018180D02*
X010280Y018180D01*
X010280Y017180D02*
X009720Y017180D01*
X009720Y016180D02*
X010280Y016180D01*
X010280Y015180D02*
X009720Y015180D01*
X009720Y014180D02*
X010280Y014180D01*
X010280Y013180D02*
X009720Y013180D01*
X009720Y012180D02*
X010280Y012180D01*
X010280Y011180D02*
X009720Y011180D01*
X009720Y010180D02*
X010280Y010180D01*
X010280Y009180D02*
X009720Y009180D01*
X009720Y008180D02*
X010280Y008180D01*
D16*
X011000Y008180D03*
X015500Y008180D03*
X015500Y004180D03*
X007500Y014680D03*
X007500Y016180D03*
M02*
