G75*
%MOIN*%
%OFA0B0*%
%FSLAX24Y24*%
%IPPOS*%
%LPD*%
%AMOC8*
5,1,8,0,0,1.08239X$1,22.5*
%
%ADD10C,0.0040*%
%ADD11C,0.0060*%
%ADD12C,0.0030*%
%ADD13C,0.0080*%
%ADD14C,0.0010*%
D10*
X003797Y009450D02*
X003950Y009450D01*
X004027Y009527D01*
X004027Y009680D01*
X003873Y009680D01*
X003720Y009527D02*
X003720Y009834D01*
X003797Y009910D01*
X003950Y009910D01*
X004027Y009834D01*
X004180Y009910D02*
X004487Y009450D01*
X004487Y009910D01*
X004641Y009910D02*
X004871Y009910D01*
X004948Y009834D01*
X004948Y009527D01*
X004871Y009450D01*
X004641Y009450D01*
X004641Y009910D01*
X004180Y009910D02*
X004180Y009450D01*
X003797Y009450D02*
X003720Y009527D01*
X003797Y010500D02*
X003720Y010577D01*
X003720Y010884D01*
X003797Y010960D01*
X003950Y010960D01*
X004027Y010884D01*
X004180Y010960D02*
X004487Y010960D01*
X004334Y010960D02*
X004334Y010500D01*
X004641Y010577D02*
X004718Y010500D01*
X004871Y010500D01*
X004948Y010577D01*
X004948Y010653D01*
X004871Y010730D01*
X004718Y010730D01*
X004641Y010807D01*
X004641Y010884D01*
X004718Y010960D01*
X004871Y010960D01*
X004948Y010884D01*
X004821Y011450D02*
X004898Y011527D01*
X004821Y011450D02*
X004668Y011450D01*
X004591Y011527D01*
X004591Y011834D01*
X004668Y011910D01*
X004821Y011910D01*
X004898Y011834D01*
X004437Y011834D02*
X004361Y011910D01*
X004207Y011910D01*
X004130Y011834D01*
X004130Y011527D01*
X004207Y011450D01*
X004361Y011450D01*
X004437Y011527D01*
X003977Y011603D02*
X003977Y011910D01*
X003977Y011603D02*
X003823Y011450D01*
X003670Y011603D01*
X003670Y011910D01*
X003720Y012450D02*
X003720Y012910D01*
X003950Y012910D01*
X004027Y012834D01*
X004027Y012680D01*
X003950Y012603D01*
X003720Y012603D01*
X003873Y012603D02*
X004027Y012450D01*
X004180Y012450D02*
X004487Y012910D01*
X004180Y012910D02*
X004487Y012450D01*
X004487Y013450D02*
X004180Y013910D01*
X004027Y013910D02*
X003720Y013910D01*
X003873Y013910D02*
X003873Y013450D01*
X004180Y013450D02*
X004487Y013910D01*
X004334Y014500D02*
X004334Y014960D01*
X004487Y014960D02*
X004180Y014960D01*
X004027Y014884D02*
X003950Y014960D01*
X003720Y014960D01*
X003720Y014500D01*
X003950Y014500D01*
X004027Y014577D01*
X004027Y014884D01*
X004641Y014960D02*
X004641Y014500D01*
X004641Y014653D02*
X004871Y014653D01*
X004948Y014730D01*
X004948Y014884D01*
X004871Y014960D01*
X004641Y014960D01*
X004794Y014653D02*
X004948Y014500D01*
X004977Y017450D02*
X004670Y017450D01*
X004823Y017450D02*
X004823Y017910D01*
X004670Y017757D01*
X005130Y017910D02*
X005130Y017450D01*
X005130Y017603D02*
X005437Y017910D01*
X005207Y017680D02*
X005437Y017450D01*
X004027Y010577D02*
X003950Y010500D01*
X003797Y010500D01*
X017970Y009884D02*
X018047Y009960D01*
X018200Y009960D01*
X018277Y009884D01*
X018277Y009807D01*
X018200Y009730D01*
X018277Y009653D01*
X018277Y009577D01*
X018200Y009500D01*
X018047Y009500D01*
X017970Y009577D01*
X018123Y009730D02*
X018200Y009730D01*
X018430Y009577D02*
X018507Y009500D01*
X018661Y009500D01*
X018737Y009577D01*
X018737Y009653D01*
X018661Y009730D01*
X018584Y009730D01*
X018661Y009730D02*
X018737Y009807D01*
X018737Y009884D01*
X018661Y009960D01*
X018507Y009960D01*
X018430Y009884D01*
X018891Y009884D02*
X018891Y009577D01*
X019198Y009884D01*
X019198Y009577D01*
X019121Y009500D01*
X018968Y009500D01*
X018891Y009577D01*
X018891Y009884D02*
X018968Y009960D01*
X019121Y009960D01*
X019198Y009884D01*
X019121Y005710D02*
X018968Y005710D01*
X018891Y005634D01*
X018891Y005327D01*
X019198Y005634D01*
X019198Y005327D01*
X019121Y005250D01*
X018968Y005250D01*
X018891Y005327D01*
X018737Y005327D02*
X018737Y005403D01*
X018661Y005480D01*
X018584Y005480D01*
X018661Y005480D02*
X018737Y005557D01*
X018737Y005634D01*
X018661Y005710D01*
X018507Y005710D01*
X018430Y005634D01*
X018277Y005634D02*
X018277Y005557D01*
X018200Y005480D01*
X018277Y005403D01*
X018277Y005327D01*
X018200Y005250D01*
X018047Y005250D01*
X017970Y005327D01*
X018123Y005480D02*
X018200Y005480D01*
X018277Y005634D02*
X018200Y005710D01*
X018047Y005710D01*
X017970Y005634D01*
X018430Y005327D02*
X018507Y005250D01*
X018661Y005250D01*
X018737Y005327D01*
X019121Y005710D02*
X019198Y005634D01*
X019071Y001960D02*
X019148Y001884D01*
X018841Y001577D01*
X018918Y001500D01*
X019071Y001500D01*
X019148Y001577D01*
X019148Y001884D01*
X019071Y001960D02*
X018918Y001960D01*
X018841Y001884D01*
X018841Y001577D01*
X018687Y001577D02*
X018611Y001500D01*
X018457Y001500D01*
X018380Y001577D01*
X018227Y001577D02*
X018150Y001500D01*
X017997Y001500D01*
X017920Y001577D01*
X018073Y001730D02*
X018150Y001730D01*
X018227Y001653D01*
X018227Y001577D01*
X018150Y001730D02*
X018227Y001807D01*
X018227Y001884D01*
X018150Y001960D01*
X017997Y001960D01*
X017920Y001884D01*
X018380Y001884D02*
X018457Y001960D01*
X018611Y001960D01*
X018687Y001884D01*
X018687Y001807D01*
X018611Y001730D01*
X018687Y001653D01*
X018687Y001577D01*
X018611Y001730D02*
X018534Y001730D01*
X019873Y014950D02*
X020027Y015103D01*
X020027Y015410D01*
X020180Y015334D02*
X020180Y015027D01*
X020257Y014950D01*
X020411Y014950D01*
X020487Y015027D01*
X020641Y015027D02*
X020718Y014950D01*
X020871Y014950D01*
X020948Y015027D01*
X020948Y015334D02*
X020871Y015410D01*
X020718Y015410D01*
X020641Y015334D01*
X020641Y015027D01*
X020487Y015334D02*
X020411Y015410D01*
X020257Y015410D01*
X020180Y015334D01*
X019873Y014950D02*
X019720Y015103D01*
X019720Y015410D01*
X019770Y016050D02*
X019770Y016357D01*
X019923Y016510D01*
X020077Y016357D01*
X020077Y016050D01*
X020230Y016127D02*
X020307Y016050D01*
X020461Y016050D01*
X020537Y016127D01*
X020537Y016280D01*
X020461Y016357D01*
X020384Y016357D01*
X020230Y016280D01*
X020230Y016510D01*
X020537Y016510D01*
X020461Y017000D02*
X020461Y017460D01*
X020230Y017230D01*
X020537Y017230D01*
X020077Y017230D02*
X019770Y017230D01*
X019770Y017307D02*
X019770Y017000D01*
X020077Y017000D02*
X020077Y017307D01*
X019923Y017460D01*
X019770Y017307D01*
X019770Y018000D02*
X019770Y018307D01*
X019923Y018460D01*
X020077Y018307D01*
X020077Y018000D01*
X020230Y018077D02*
X020307Y018000D01*
X020461Y018000D01*
X020537Y018077D01*
X020537Y018153D01*
X020461Y018230D01*
X020384Y018230D01*
X020461Y018230D02*
X020537Y018307D01*
X020537Y018384D01*
X020461Y018460D01*
X020307Y018460D01*
X020230Y018384D01*
X020077Y018230D02*
X019770Y018230D01*
X019770Y018950D02*
X019770Y019257D01*
X019923Y019410D01*
X020077Y019257D01*
X020077Y018950D01*
X020230Y018950D02*
X020537Y019257D01*
X020537Y019334D01*
X020461Y019410D01*
X020307Y019410D01*
X020230Y019334D01*
X020077Y019180D02*
X019770Y019180D01*
X020230Y018950D02*
X020537Y018950D01*
X020537Y020050D02*
X020230Y020050D01*
X020077Y020050D02*
X020077Y020357D01*
X019923Y020510D01*
X019770Y020357D01*
X019770Y020050D01*
X019770Y020280D02*
X020077Y020280D01*
X020230Y020357D02*
X020384Y020510D01*
X020384Y020050D01*
X020461Y021000D02*
X020307Y021000D01*
X020230Y021077D01*
X020537Y021384D01*
X020537Y021077D01*
X020461Y021000D01*
X020230Y021077D02*
X020230Y021384D01*
X020307Y021460D01*
X020461Y021460D01*
X020537Y021384D01*
X020077Y021307D02*
X020077Y021000D01*
X020077Y021230D02*
X019770Y021230D01*
X019770Y021307D02*
X019923Y021460D01*
X020077Y021307D01*
X019770Y021307D02*
X019770Y021000D01*
X019797Y022000D02*
X019720Y022077D01*
X019720Y022384D01*
X019797Y022460D01*
X019950Y022460D01*
X020027Y022384D01*
X020027Y022230D02*
X019873Y022230D01*
X020027Y022230D02*
X020027Y022077D01*
X019950Y022000D01*
X019797Y022000D01*
X020180Y022000D02*
X020180Y022460D01*
X020487Y022000D01*
X020487Y022460D01*
X020641Y022460D02*
X020871Y022460D01*
X020948Y022384D01*
X020948Y022077D01*
X020871Y022000D01*
X020641Y022000D01*
X020641Y022460D01*
X020077Y016280D02*
X019770Y016280D01*
D11*
X017500Y012180D02*
X017502Y012243D01*
X017508Y012305D01*
X017518Y012367D01*
X017531Y012429D01*
X017549Y012489D01*
X017570Y012548D01*
X017595Y012606D01*
X017624Y012662D01*
X017656Y012716D01*
X017691Y012768D01*
X017729Y012817D01*
X017771Y012865D01*
X017815Y012909D01*
X017863Y012951D01*
X017912Y012989D01*
X017964Y013024D01*
X018018Y013056D01*
X018074Y013085D01*
X018132Y013110D01*
X018191Y013131D01*
X018251Y013149D01*
X018313Y013162D01*
X018375Y013172D01*
X018437Y013178D01*
X018500Y013180D01*
X018563Y013178D01*
X018625Y013172D01*
X018687Y013162D01*
X018749Y013149D01*
X018809Y013131D01*
X018868Y013110D01*
X018926Y013085D01*
X018982Y013056D01*
X019036Y013024D01*
X019088Y012989D01*
X019137Y012951D01*
X019185Y012909D01*
X019229Y012865D01*
X019271Y012817D01*
X019309Y012768D01*
X019344Y012716D01*
X019376Y012662D01*
X019405Y012606D01*
X019430Y012548D01*
X019451Y012489D01*
X019469Y012429D01*
X019482Y012367D01*
X019492Y012305D01*
X019498Y012243D01*
X019500Y012180D01*
X019498Y012117D01*
X019492Y012055D01*
X019482Y011993D01*
X019469Y011931D01*
X019451Y011871D01*
X019430Y011812D01*
X019405Y011754D01*
X019376Y011698D01*
X019344Y011644D01*
X019309Y011592D01*
X019271Y011543D01*
X019229Y011495D01*
X019185Y011451D01*
X019137Y011409D01*
X019088Y011371D01*
X019036Y011336D01*
X018982Y011304D01*
X018926Y011275D01*
X018868Y011250D01*
X018809Y011229D01*
X018749Y011211D01*
X018687Y011198D01*
X018625Y011188D01*
X018563Y011182D01*
X018500Y011180D01*
X018437Y011182D01*
X018375Y011188D01*
X018313Y011198D01*
X018251Y011211D01*
X018191Y011229D01*
X018132Y011250D01*
X018074Y011275D01*
X018018Y011304D01*
X017964Y011336D01*
X017912Y011371D01*
X017863Y011409D01*
X017815Y011451D01*
X017771Y011495D01*
X017729Y011543D01*
X017691Y011592D01*
X017656Y011644D01*
X017624Y011698D01*
X017595Y011754D01*
X017570Y011812D01*
X017549Y011871D01*
X017531Y011931D01*
X017518Y011993D01*
X017508Y012055D01*
X017502Y012117D01*
X017500Y012180D01*
X017500Y007680D02*
X017502Y007743D01*
X017508Y007805D01*
X017518Y007867D01*
X017531Y007929D01*
X017549Y007989D01*
X017570Y008048D01*
X017595Y008106D01*
X017624Y008162D01*
X017656Y008216D01*
X017691Y008268D01*
X017729Y008317D01*
X017771Y008365D01*
X017815Y008409D01*
X017863Y008451D01*
X017912Y008489D01*
X017964Y008524D01*
X018018Y008556D01*
X018074Y008585D01*
X018132Y008610D01*
X018191Y008631D01*
X018251Y008649D01*
X018313Y008662D01*
X018375Y008672D01*
X018437Y008678D01*
X018500Y008680D01*
X018563Y008678D01*
X018625Y008672D01*
X018687Y008662D01*
X018749Y008649D01*
X018809Y008631D01*
X018868Y008610D01*
X018926Y008585D01*
X018982Y008556D01*
X019036Y008524D01*
X019088Y008489D01*
X019137Y008451D01*
X019185Y008409D01*
X019229Y008365D01*
X019271Y008317D01*
X019309Y008268D01*
X019344Y008216D01*
X019376Y008162D01*
X019405Y008106D01*
X019430Y008048D01*
X019451Y007989D01*
X019469Y007929D01*
X019482Y007867D01*
X019492Y007805D01*
X019498Y007743D01*
X019500Y007680D01*
X019498Y007617D01*
X019492Y007555D01*
X019482Y007493D01*
X019469Y007431D01*
X019451Y007371D01*
X019430Y007312D01*
X019405Y007254D01*
X019376Y007198D01*
X019344Y007144D01*
X019309Y007092D01*
X019271Y007043D01*
X019229Y006995D01*
X019185Y006951D01*
X019137Y006909D01*
X019088Y006871D01*
X019036Y006836D01*
X018982Y006804D01*
X018926Y006775D01*
X018868Y006750D01*
X018809Y006729D01*
X018749Y006711D01*
X018687Y006698D01*
X018625Y006688D01*
X018563Y006682D01*
X018500Y006680D01*
X018437Y006682D01*
X018375Y006688D01*
X018313Y006698D01*
X018251Y006711D01*
X018191Y006729D01*
X018132Y006750D01*
X018074Y006775D01*
X018018Y006804D01*
X017964Y006836D01*
X017912Y006871D01*
X017863Y006909D01*
X017815Y006951D01*
X017771Y006995D01*
X017729Y007043D01*
X017691Y007092D01*
X017656Y007144D01*
X017624Y007198D01*
X017595Y007254D01*
X017570Y007312D01*
X017549Y007371D01*
X017531Y007431D01*
X017518Y007493D01*
X017508Y007555D01*
X017502Y007617D01*
X017500Y007680D01*
X017500Y003680D02*
X017502Y003743D01*
X017508Y003805D01*
X017518Y003867D01*
X017531Y003929D01*
X017549Y003989D01*
X017570Y004048D01*
X017595Y004106D01*
X017624Y004162D01*
X017656Y004216D01*
X017691Y004268D01*
X017729Y004317D01*
X017771Y004365D01*
X017815Y004409D01*
X017863Y004451D01*
X017912Y004489D01*
X017964Y004524D01*
X018018Y004556D01*
X018074Y004585D01*
X018132Y004610D01*
X018191Y004631D01*
X018251Y004649D01*
X018313Y004662D01*
X018375Y004672D01*
X018437Y004678D01*
X018500Y004680D01*
X018563Y004678D01*
X018625Y004672D01*
X018687Y004662D01*
X018749Y004649D01*
X018809Y004631D01*
X018868Y004610D01*
X018926Y004585D01*
X018982Y004556D01*
X019036Y004524D01*
X019088Y004489D01*
X019137Y004451D01*
X019185Y004409D01*
X019229Y004365D01*
X019271Y004317D01*
X019309Y004268D01*
X019344Y004216D01*
X019376Y004162D01*
X019405Y004106D01*
X019430Y004048D01*
X019451Y003989D01*
X019469Y003929D01*
X019482Y003867D01*
X019492Y003805D01*
X019498Y003743D01*
X019500Y003680D01*
X019498Y003617D01*
X019492Y003555D01*
X019482Y003493D01*
X019469Y003431D01*
X019451Y003371D01*
X019430Y003312D01*
X019405Y003254D01*
X019376Y003198D01*
X019344Y003144D01*
X019309Y003092D01*
X019271Y003043D01*
X019229Y002995D01*
X019185Y002951D01*
X019137Y002909D01*
X019088Y002871D01*
X019036Y002836D01*
X018982Y002804D01*
X018926Y002775D01*
X018868Y002750D01*
X018809Y002729D01*
X018749Y002711D01*
X018687Y002698D01*
X018625Y002688D01*
X018563Y002682D01*
X018500Y002680D01*
X018437Y002682D01*
X018375Y002688D01*
X018313Y002698D01*
X018251Y002711D01*
X018191Y002729D01*
X018132Y002750D01*
X018074Y002775D01*
X018018Y002804D01*
X017964Y002836D01*
X017912Y002871D01*
X017863Y002909D01*
X017815Y002951D01*
X017771Y002995D01*
X017729Y003043D01*
X017691Y003092D01*
X017656Y003144D01*
X017624Y003198D01*
X017595Y003254D01*
X017570Y003312D01*
X017549Y003371D01*
X017531Y003431D01*
X017518Y003493D01*
X017508Y003555D01*
X017502Y003617D01*
X017500Y003680D01*
X011670Y012610D02*
X011243Y012610D01*
X011029Y012824D01*
X011243Y013037D01*
X011670Y013037D01*
X011350Y013037D02*
X011350Y012610D01*
X011029Y013255D02*
X011029Y013682D01*
X011029Y013468D02*
X011670Y013468D01*
X011670Y013899D02*
X011243Y013899D01*
X011243Y014006D01*
X011350Y014113D01*
X011243Y014219D01*
X011350Y014326D01*
X011670Y014326D01*
X011670Y014113D02*
X011350Y014113D01*
X011350Y014544D02*
X011243Y014650D01*
X011243Y014864D01*
X011350Y014971D01*
X011456Y014971D01*
X011456Y014544D01*
X011350Y014544D02*
X011563Y014544D01*
X011670Y014650D01*
X011670Y014864D01*
X011563Y015188D02*
X011350Y015188D01*
X011243Y015295D01*
X011243Y015615D01*
X011777Y015615D01*
X011884Y015508D01*
X011884Y015402D01*
X011670Y015295D02*
X011670Y015615D01*
X011563Y015833D02*
X011456Y015940D01*
X011456Y016260D01*
X011350Y016260D02*
X011670Y016260D01*
X011670Y015940D01*
X011563Y015833D01*
X011243Y015940D02*
X011243Y016153D01*
X011350Y016260D01*
X011563Y016477D02*
X011670Y016584D01*
X011670Y016798D01*
X011563Y016904D01*
X011456Y016904D01*
X011350Y016798D01*
X011350Y016691D01*
X011350Y016798D02*
X011243Y016904D01*
X011136Y016904D01*
X011029Y016798D01*
X011029Y016584D01*
X011136Y016477D01*
X011136Y017122D02*
X011029Y017229D01*
X011029Y017442D01*
X011136Y017549D01*
X011243Y017549D01*
X011670Y017122D01*
X011670Y017549D01*
X011563Y017766D02*
X011456Y017766D01*
X011350Y017873D01*
X011350Y018087D01*
X011456Y018193D01*
X011563Y018193D01*
X011670Y018087D01*
X011670Y017873D01*
X011563Y017766D01*
X011350Y017873D02*
X011243Y017766D01*
X011136Y017766D01*
X011029Y017873D01*
X011029Y018087D01*
X011136Y018193D01*
X011243Y018193D01*
X011350Y018087D01*
X011670Y015295D02*
X011563Y015188D01*
D12*
X008885Y013627D02*
X008515Y013627D01*
X008515Y013874D01*
X008700Y013750D02*
X008700Y013627D01*
X008700Y013505D02*
X008823Y013505D01*
X008885Y013444D01*
X008885Y013382D01*
X008823Y013320D01*
X008947Y013320D01*
X009008Y013258D01*
X008885Y013137D02*
X008885Y012890D01*
X008885Y012768D02*
X008885Y012706D01*
X008823Y012706D01*
X008823Y012768D01*
X008885Y012768D01*
X008823Y012584D02*
X008885Y012523D01*
X008885Y012399D01*
X008823Y012338D01*
X008576Y012584D01*
X008823Y012584D01*
X008823Y012338D02*
X008576Y012338D01*
X008515Y012399D01*
X008515Y012523D01*
X008576Y012584D01*
X008638Y012890D02*
X008515Y013013D01*
X008885Y013013D01*
X008823Y013320D02*
X008700Y013320D01*
X006204Y016245D02*
X006204Y016615D01*
X006451Y016615D01*
X006328Y016430D02*
X006204Y016430D01*
X006083Y016430D02*
X006083Y016307D01*
X006021Y016245D01*
X005959Y016245D01*
X005898Y016307D01*
X005898Y016183D01*
X005836Y016122D01*
X005714Y016245D02*
X005467Y016245D01*
X005345Y016245D02*
X005283Y016245D01*
X005283Y016307D01*
X005345Y016307D01*
X005345Y016245D01*
X005162Y016307D02*
X005162Y016554D01*
X004915Y016307D01*
X004977Y016245D01*
X005100Y016245D01*
X005162Y016307D01*
X005162Y016554D02*
X005100Y016615D01*
X004977Y016615D01*
X004915Y016554D01*
X004915Y016307D01*
X005467Y016492D02*
X005591Y016615D01*
X005591Y016245D01*
X005898Y016307D02*
X005898Y016430D01*
X003996Y018745D02*
X004119Y018868D01*
X004119Y019115D01*
X003872Y019115D02*
X003872Y018868D01*
X003996Y018745D01*
X003751Y018807D02*
X003689Y018745D01*
X003566Y018745D01*
X003504Y018807D01*
X003504Y018930D02*
X003628Y018992D01*
X003689Y018992D01*
X003751Y018930D01*
X003751Y018807D01*
X003504Y018930D02*
X003504Y019115D01*
X003751Y019115D01*
X003383Y018930D02*
X003136Y018930D01*
X003014Y018868D02*
X003014Y018807D01*
X002953Y018745D01*
X002829Y018745D01*
X002767Y018807D01*
X002645Y018807D02*
X002645Y018745D01*
X002583Y018745D01*
X002583Y018807D01*
X002645Y018807D01*
X002462Y018807D02*
X002400Y018745D01*
X002277Y018745D01*
X002215Y018807D01*
X002338Y018930D02*
X002400Y018930D01*
X002462Y018868D01*
X002462Y018807D01*
X002400Y018930D02*
X002462Y018992D01*
X002462Y019054D01*
X002400Y019115D01*
X002277Y019115D01*
X002215Y019054D01*
X002767Y019054D02*
X002829Y019115D01*
X002953Y019115D01*
X003014Y019054D01*
X003014Y018992D01*
X002953Y018930D01*
X003014Y018868D01*
X002953Y018930D02*
X002891Y018930D01*
X003259Y019054D02*
X003259Y018807D01*
D13*
X003250Y009180D02*
X002750Y009180D01*
X002500Y009430D01*
X002500Y009930D01*
X002750Y010180D01*
X002500Y010430D01*
X002500Y010930D01*
X002750Y011180D01*
X002500Y011430D01*
X002500Y011930D01*
X002750Y012180D01*
X002500Y012430D01*
X002500Y012930D01*
X002750Y013180D01*
X002500Y013430D01*
X002500Y013930D01*
X002750Y014180D01*
X002500Y014430D01*
X002500Y014930D01*
X002750Y015180D01*
X003250Y015180D01*
X003500Y014930D01*
X003500Y014430D01*
X003250Y014180D01*
X003500Y013930D01*
X003500Y013430D01*
X003250Y013180D01*
X003500Y012930D01*
X003500Y012430D01*
X003250Y012180D01*
X003500Y011930D01*
X003500Y011430D01*
X003250Y011180D01*
X003500Y010930D01*
X003500Y010430D01*
X003250Y010180D01*
X003500Y009930D01*
X003500Y009430D01*
X003250Y009180D01*
X007750Y013180D02*
X008250Y013180D01*
X005500Y015430D02*
X005500Y015930D01*
X006240Y017208D02*
X003760Y017208D01*
X003760Y018152D01*
X006240Y018152D01*
X006240Y017208D01*
X005894Y019908D02*
X005618Y019908D01*
X005894Y019908D02*
X005894Y020735D01*
X005894Y022625D02*
X005894Y023452D01*
X001681Y023452D01*
X001681Y019908D01*
X003768Y019908D01*
X010300Y021580D02*
X010300Y021680D01*
X011000Y021680D01*
X011002Y021636D01*
X011008Y021593D01*
X011017Y021551D01*
X011030Y021509D01*
X011047Y021469D01*
X011067Y021430D01*
X011090Y021393D01*
X011117Y021359D01*
X011146Y021326D01*
X011179Y021297D01*
X011213Y021270D01*
X011250Y021247D01*
X011289Y021227D01*
X011329Y021210D01*
X011371Y021197D01*
X011413Y021188D01*
X011456Y021182D01*
X011500Y021180D01*
X011544Y021182D01*
X011587Y021188D01*
X011629Y021197D01*
X011671Y021210D01*
X011711Y021227D01*
X011750Y021247D01*
X011787Y021270D01*
X011821Y021297D01*
X011854Y021326D01*
X011883Y021359D01*
X011910Y021393D01*
X011933Y021430D01*
X011953Y021469D01*
X011970Y021509D01*
X011983Y021551D01*
X011992Y021593D01*
X011998Y021636D01*
X012000Y021680D01*
X012700Y021680D01*
X012700Y021580D01*
X018500Y021430D02*
X018500Y020930D01*
X018750Y020680D01*
X018500Y020430D01*
X018500Y019930D01*
X018750Y019680D01*
X018500Y019430D01*
X018500Y018930D01*
X018750Y018680D01*
X018500Y018430D01*
X018500Y017930D01*
X018750Y017680D01*
X018500Y017430D01*
X018500Y016930D01*
X018750Y016680D01*
X018500Y016430D01*
X018500Y015930D01*
X018750Y015680D01*
X018500Y015430D01*
X018500Y014930D01*
X018750Y014680D01*
X019250Y014680D01*
X019500Y014930D01*
X019500Y015430D01*
X019250Y015680D01*
X019500Y015930D01*
X019500Y016430D01*
X019250Y016680D01*
X019500Y016930D01*
X019500Y017430D01*
X019250Y017680D01*
X019500Y017930D01*
X019500Y018430D01*
X019250Y018680D01*
X019500Y018930D01*
X019500Y019430D01*
X019250Y019680D01*
X019500Y019930D01*
X019500Y020430D01*
X019250Y020680D01*
X019500Y020930D01*
X019500Y021430D01*
X019250Y021680D01*
X019500Y021930D01*
X019500Y022430D01*
X019250Y022680D01*
X018750Y022680D01*
X018500Y022430D01*
X018500Y021930D01*
X018750Y021680D01*
X018500Y021430D01*
X019500Y012930D02*
X019500Y011430D01*
X019740Y010152D02*
X017260Y010152D01*
X017260Y009208D01*
X019740Y009208D01*
X019740Y010152D01*
X019500Y008430D02*
X019500Y006930D01*
X019740Y005902D02*
X019740Y004958D01*
X017260Y004958D01*
X017260Y005902D01*
X019740Y005902D01*
X019500Y004430D02*
X019500Y002930D01*
X019740Y002152D02*
X019740Y001208D01*
X017260Y001208D01*
X017260Y002152D01*
X019740Y002152D01*
X013000Y002930D02*
X012750Y002680D01*
X012250Y002680D01*
X012000Y002930D01*
X012000Y004430D01*
X011750Y004680D01*
X011250Y004680D01*
X011000Y004430D01*
X011000Y002930D01*
X010750Y002680D01*
X010250Y002680D01*
X010000Y002930D01*
X010000Y004430D01*
X010250Y004680D01*
X010750Y004680D01*
X011000Y004430D01*
X012000Y004430D02*
X012250Y004680D01*
X012750Y004680D01*
X013000Y004430D01*
X013000Y002930D01*
X012000Y002930D02*
X011750Y002680D01*
X011250Y002680D01*
X011000Y002930D01*
X012250Y004812D02*
X012750Y004812D01*
X012700Y007680D02*
X010300Y007680D01*
X010300Y007780D01*
X012700Y007780D02*
X012700Y007680D01*
D14*
X019532Y008460D02*
X019460Y008406D01*
X019461Y008407D02*
X019418Y008460D01*
X019373Y008511D01*
X019324Y008559D01*
X019273Y008604D01*
X019219Y008647D01*
X019163Y008686D01*
X019105Y008722D01*
X019045Y008755D01*
X018984Y008784D01*
X018920Y008809D01*
X018856Y008831D01*
X018790Y008850D01*
X018723Y008864D01*
X018656Y008875D01*
X018588Y008882D01*
X018520Y008885D01*
X018451Y008884D01*
X018383Y008879D01*
X018315Y008871D01*
X018248Y008858D01*
X018182Y008842D01*
X018117Y008822D01*
X018052Y008799D01*
X017990Y008772D01*
X017929Y008741D01*
X017870Y008707D01*
X017812Y008670D01*
X017757Y008629D01*
X017705Y008585D01*
X017655Y008539D01*
X017608Y008490D01*
X017563Y008438D01*
X017522Y008384D01*
X017483Y008327D01*
X017448Y008268D01*
X017417Y008208D01*
X017389Y008146D01*
X017364Y008082D01*
X017343Y008017D01*
X017326Y007951D01*
X017312Y007884D01*
X017303Y007816D01*
X017297Y007748D01*
X017295Y007680D01*
X017297Y007612D01*
X017303Y007544D01*
X017312Y007476D01*
X017326Y007409D01*
X017343Y007343D01*
X017364Y007278D01*
X017389Y007214D01*
X017417Y007152D01*
X017448Y007092D01*
X017483Y007033D01*
X017522Y006976D01*
X017563Y006922D01*
X017608Y006870D01*
X017655Y006821D01*
X017705Y006775D01*
X017757Y006731D01*
X017812Y006690D01*
X017870Y006653D01*
X017929Y006619D01*
X017990Y006588D01*
X018052Y006561D01*
X018117Y006538D01*
X018182Y006518D01*
X018248Y006502D01*
X018315Y006489D01*
X018383Y006481D01*
X018451Y006476D01*
X018520Y006475D01*
X018588Y006478D01*
X018656Y006485D01*
X018723Y006496D01*
X018790Y006510D01*
X018856Y006529D01*
X018920Y006551D01*
X018984Y006576D01*
X019045Y006605D01*
X019105Y006638D01*
X019163Y006674D01*
X019219Y006713D01*
X019273Y006756D01*
X019324Y006801D01*
X019373Y006849D01*
X019418Y006900D01*
X019461Y006953D01*
X019532Y006900D01*
X019533Y006899D01*
X019489Y006844D01*
X019441Y006791D01*
X019391Y006740D01*
X019338Y006693D01*
X019283Y006649D01*
X019225Y006607D01*
X019165Y006569D01*
X019104Y006534D01*
X019040Y006503D01*
X018975Y006475D01*
X018908Y006451D01*
X018840Y006430D01*
X018771Y006414D01*
X018701Y006401D01*
X018631Y006392D01*
X018560Y006386D01*
X018489Y006385D01*
X018418Y006388D01*
X018347Y006394D01*
X018277Y006404D01*
X018208Y006418D01*
X018139Y006436D01*
X018071Y006458D01*
X018005Y006483D01*
X017940Y006512D01*
X017877Y006545D01*
X017816Y006581D01*
X017757Y006620D01*
X017700Y006662D01*
X017645Y006707D01*
X017593Y006756D01*
X017544Y006807D01*
X017497Y006860D01*
X017454Y006917D01*
X017414Y006975D01*
X017377Y007036D01*
X017343Y007098D01*
X017313Y007162D01*
X017286Y007228D01*
X017263Y007295D01*
X017244Y007364D01*
X017229Y007433D01*
X017217Y007503D01*
X017209Y007574D01*
X017205Y007645D01*
X017205Y007715D01*
X017209Y007786D01*
X017217Y007857D01*
X017229Y007927D01*
X017244Y007996D01*
X017263Y008065D01*
X017286Y008132D01*
X017313Y008198D01*
X017343Y008262D01*
X017377Y008324D01*
X017414Y008385D01*
X017454Y008443D01*
X017497Y008500D01*
X017544Y008553D01*
X017593Y008604D01*
X017645Y008653D01*
X017700Y008698D01*
X017757Y008740D01*
X017816Y008779D01*
X017877Y008815D01*
X017940Y008848D01*
X018005Y008877D01*
X018071Y008902D01*
X018139Y008924D01*
X018208Y008942D01*
X018277Y008956D01*
X018347Y008966D01*
X018418Y008972D01*
X018489Y008975D01*
X018560Y008974D01*
X018631Y008968D01*
X018701Y008959D01*
X018771Y008946D01*
X018840Y008930D01*
X018908Y008909D01*
X018975Y008885D01*
X019040Y008857D01*
X019104Y008826D01*
X019165Y008791D01*
X019225Y008753D01*
X019283Y008711D01*
X019338Y008667D01*
X019391Y008620D01*
X019441Y008569D01*
X019489Y008516D01*
X019533Y008461D01*
X019526Y008456D01*
X019481Y008511D01*
X019434Y008564D01*
X019383Y008615D01*
X019330Y008662D01*
X019274Y008707D01*
X019216Y008748D01*
X019156Y008786D01*
X019094Y008821D01*
X019030Y008852D01*
X018964Y008879D01*
X018897Y008903D01*
X018828Y008923D01*
X018759Y008940D01*
X018689Y008952D01*
X018618Y008961D01*
X018547Y008965D01*
X018476Y008966D01*
X018405Y008962D01*
X018334Y008955D01*
X018263Y008944D01*
X018194Y008929D01*
X018125Y008910D01*
X018057Y008887D01*
X017991Y008861D01*
X017926Y008831D01*
X017864Y008797D01*
X017803Y008761D01*
X017744Y008720D01*
X017687Y008677D01*
X017633Y008630D01*
X017582Y008581D01*
X017534Y008528D01*
X017488Y008474D01*
X017446Y008416D01*
X017407Y008357D01*
X017371Y008295D01*
X017338Y008232D01*
X017310Y008167D01*
X017284Y008100D01*
X017263Y008032D01*
X017245Y007963D01*
X017232Y007893D01*
X017222Y007822D01*
X017216Y007751D01*
X017214Y007680D01*
X017216Y007609D01*
X017222Y007538D01*
X017232Y007467D01*
X017245Y007397D01*
X017263Y007328D01*
X017284Y007260D01*
X017310Y007193D01*
X017338Y007128D01*
X017371Y007065D01*
X017407Y007003D01*
X017446Y006944D01*
X017488Y006886D01*
X017534Y006832D01*
X017582Y006779D01*
X017633Y006730D01*
X017687Y006683D01*
X017744Y006640D01*
X017803Y006599D01*
X017864Y006563D01*
X017926Y006529D01*
X017991Y006499D01*
X018057Y006473D01*
X018125Y006450D01*
X018194Y006431D01*
X018263Y006416D01*
X018334Y006405D01*
X018405Y006398D01*
X018476Y006394D01*
X018547Y006395D01*
X018618Y006399D01*
X018689Y006408D01*
X018759Y006420D01*
X018828Y006437D01*
X018897Y006457D01*
X018964Y006481D01*
X019030Y006508D01*
X019094Y006539D01*
X019156Y006574D01*
X019216Y006612D01*
X019274Y006653D01*
X019330Y006698D01*
X019383Y006745D01*
X019434Y006796D01*
X019481Y006849D01*
X019526Y006904D01*
X019519Y006910D01*
X019474Y006855D01*
X019427Y006802D01*
X019377Y006752D01*
X019324Y006705D01*
X019269Y006661D01*
X019211Y006619D01*
X019152Y006582D01*
X019090Y006547D01*
X019026Y006516D01*
X018961Y006489D01*
X018894Y006465D01*
X018826Y006445D01*
X018757Y006429D01*
X018688Y006417D01*
X018617Y006408D01*
X018547Y006404D01*
X018476Y006403D01*
X018405Y006407D01*
X018335Y006414D01*
X018265Y006425D01*
X018196Y006440D01*
X018128Y006459D01*
X018060Y006481D01*
X017995Y006507D01*
X017930Y006537D01*
X017868Y006570D01*
X017808Y006607D01*
X017749Y006647D01*
X017693Y006690D01*
X017639Y006736D01*
X017589Y006786D01*
X017540Y006837D01*
X017495Y006892D01*
X017453Y006949D01*
X017414Y007008D01*
X017379Y007069D01*
X017346Y007132D01*
X017318Y007197D01*
X017293Y007263D01*
X017272Y007331D01*
X017254Y007399D01*
X017241Y007469D01*
X017231Y007539D01*
X017225Y007609D01*
X017223Y007680D01*
X017225Y007751D01*
X017231Y007821D01*
X017241Y007891D01*
X017254Y007961D01*
X017272Y008029D01*
X017293Y008097D01*
X017318Y008163D01*
X017346Y008228D01*
X017379Y008291D01*
X017414Y008352D01*
X017453Y008411D01*
X017495Y008468D01*
X017540Y008523D01*
X017589Y008574D01*
X017639Y008624D01*
X017693Y008670D01*
X017749Y008713D01*
X017808Y008753D01*
X017868Y008790D01*
X017930Y008823D01*
X017995Y008853D01*
X018060Y008879D01*
X018128Y008901D01*
X018196Y008920D01*
X018265Y008935D01*
X018335Y008946D01*
X018405Y008953D01*
X018476Y008957D01*
X018547Y008956D01*
X018617Y008952D01*
X018688Y008943D01*
X018757Y008931D01*
X018826Y008915D01*
X018894Y008895D01*
X018961Y008871D01*
X019026Y008844D01*
X019090Y008813D01*
X019152Y008778D01*
X019211Y008741D01*
X019269Y008699D01*
X019324Y008655D01*
X019377Y008608D01*
X019427Y008558D01*
X019474Y008505D01*
X019519Y008450D01*
X019511Y008445D01*
X019467Y008500D01*
X019419Y008553D01*
X019369Y008603D01*
X019316Y008651D01*
X019260Y008695D01*
X019202Y008736D01*
X019142Y008773D01*
X019080Y008808D01*
X019016Y008838D01*
X018950Y008865D01*
X018883Y008889D01*
X018815Y008908D01*
X018745Y008924D01*
X018675Y008936D01*
X018605Y008944D01*
X018534Y008948D01*
X018463Y008947D01*
X018392Y008943D01*
X018321Y008935D01*
X018251Y008923D01*
X018182Y008907D01*
X018114Y008888D01*
X018046Y008864D01*
X017981Y008837D01*
X017917Y008806D01*
X017855Y008772D01*
X017795Y008734D01*
X017737Y008692D01*
X017681Y008648D01*
X017628Y008601D01*
X017578Y008550D01*
X017531Y008497D01*
X017486Y008442D01*
X017445Y008384D01*
X017408Y008324D01*
X017373Y008261D01*
X017342Y008197D01*
X017315Y008132D01*
X017292Y008065D01*
X017272Y007996D01*
X017256Y007927D01*
X017244Y007857D01*
X017236Y007786D01*
X017232Y007716D01*
X017232Y007644D01*
X017236Y007574D01*
X017244Y007503D01*
X017256Y007433D01*
X017272Y007364D01*
X017292Y007295D01*
X017315Y007228D01*
X017342Y007163D01*
X017373Y007099D01*
X017408Y007036D01*
X017445Y006976D01*
X017486Y006918D01*
X017531Y006863D01*
X017578Y006810D01*
X017628Y006759D01*
X017681Y006712D01*
X017737Y006668D01*
X017795Y006626D01*
X017855Y006588D01*
X017917Y006554D01*
X017981Y006523D01*
X018046Y006496D01*
X018114Y006472D01*
X018182Y006453D01*
X018251Y006437D01*
X018321Y006425D01*
X018392Y006417D01*
X018463Y006413D01*
X018534Y006412D01*
X018605Y006416D01*
X018675Y006424D01*
X018745Y006436D01*
X018815Y006452D01*
X018883Y006471D01*
X018950Y006495D01*
X019016Y006522D01*
X019080Y006552D01*
X019142Y006587D01*
X019202Y006624D01*
X019260Y006665D01*
X019316Y006709D01*
X019369Y006757D01*
X019419Y006807D01*
X019467Y006860D01*
X019511Y006915D01*
X019504Y006921D01*
X019460Y006866D01*
X019413Y006813D01*
X019363Y006763D01*
X019310Y006716D01*
X019255Y006672D01*
X019197Y006632D01*
X019138Y006594D01*
X019076Y006560D01*
X019012Y006530D01*
X018947Y006503D01*
X018880Y006480D01*
X018812Y006460D01*
X018744Y006445D01*
X018674Y006433D01*
X018604Y006425D01*
X018533Y006421D01*
X018463Y006422D01*
X018392Y006426D01*
X018322Y006434D01*
X018253Y006446D01*
X018184Y006461D01*
X018116Y006481D01*
X018050Y006504D01*
X017985Y006531D01*
X017921Y006562D01*
X017859Y006596D01*
X017800Y006634D01*
X017742Y006675D01*
X017687Y006719D01*
X017634Y006766D01*
X017585Y006816D01*
X017538Y006868D01*
X017494Y006924D01*
X017453Y006981D01*
X017415Y007041D01*
X017381Y007103D01*
X017351Y007166D01*
X017324Y007231D01*
X017300Y007298D01*
X017281Y007366D01*
X017265Y007435D01*
X017253Y007504D01*
X017245Y007574D01*
X017241Y007645D01*
X017241Y007715D01*
X017245Y007786D01*
X017253Y007856D01*
X017265Y007925D01*
X017281Y007994D01*
X017300Y008062D01*
X017324Y008129D01*
X017351Y008194D01*
X017381Y008257D01*
X017415Y008319D01*
X017453Y008379D01*
X017494Y008436D01*
X017538Y008492D01*
X017585Y008544D01*
X017634Y008594D01*
X017687Y008641D01*
X017742Y008685D01*
X017800Y008726D01*
X017859Y008764D01*
X017921Y008798D01*
X017985Y008829D01*
X018050Y008856D01*
X018116Y008879D01*
X018184Y008899D01*
X018253Y008914D01*
X018322Y008926D01*
X018392Y008934D01*
X018463Y008938D01*
X018533Y008939D01*
X018604Y008935D01*
X018674Y008927D01*
X018744Y008915D01*
X018812Y008900D01*
X018880Y008880D01*
X018947Y008857D01*
X019012Y008830D01*
X019076Y008800D01*
X019138Y008766D01*
X019197Y008728D01*
X019255Y008688D01*
X019310Y008644D01*
X019363Y008597D01*
X019413Y008547D01*
X019460Y008494D01*
X019504Y008439D01*
X019497Y008434D01*
X019453Y008489D01*
X019406Y008541D01*
X019357Y008590D01*
X019304Y008637D01*
X019250Y008680D01*
X019192Y008721D01*
X019133Y008758D01*
X019072Y008792D01*
X019008Y008822D01*
X018944Y008849D01*
X018877Y008872D01*
X018810Y008891D01*
X018742Y008906D01*
X018673Y008918D01*
X018603Y008926D01*
X018533Y008930D01*
X018463Y008929D01*
X018393Y008925D01*
X018324Y008917D01*
X018255Y008906D01*
X018186Y008890D01*
X018119Y008871D01*
X018053Y008847D01*
X017988Y008820D01*
X017925Y008790D01*
X017864Y008756D01*
X017805Y008719D01*
X017747Y008678D01*
X017693Y008634D01*
X017641Y008588D01*
X017591Y008538D01*
X017544Y008486D01*
X017501Y008431D01*
X017460Y008374D01*
X017423Y008315D01*
X017389Y008253D01*
X017359Y008190D01*
X017332Y008125D01*
X017309Y008059D01*
X017290Y007992D01*
X017274Y007924D01*
X017262Y007855D01*
X017254Y007785D01*
X017250Y007715D01*
X017250Y007645D01*
X017254Y007575D01*
X017262Y007505D01*
X017274Y007436D01*
X017290Y007368D01*
X017309Y007301D01*
X017332Y007235D01*
X017359Y007170D01*
X017389Y007107D01*
X017423Y007045D01*
X017460Y006986D01*
X017501Y006929D01*
X017544Y006874D01*
X017591Y006822D01*
X017641Y006772D01*
X017693Y006726D01*
X017747Y006682D01*
X017805Y006641D01*
X017864Y006604D01*
X017925Y006570D01*
X017988Y006540D01*
X018053Y006513D01*
X018119Y006489D01*
X018186Y006470D01*
X018255Y006454D01*
X018324Y006443D01*
X018393Y006435D01*
X018463Y006431D01*
X018533Y006430D01*
X018603Y006434D01*
X018673Y006442D01*
X018742Y006454D01*
X018810Y006469D01*
X018877Y006488D01*
X018944Y006511D01*
X019008Y006538D01*
X019072Y006568D01*
X019133Y006602D01*
X019192Y006639D01*
X019250Y006680D01*
X019304Y006723D01*
X019357Y006770D01*
X019406Y006819D01*
X019453Y006871D01*
X019497Y006926D01*
X019490Y006931D01*
X019446Y006877D01*
X019400Y006825D01*
X019351Y006776D01*
X019299Y006730D01*
X019244Y006687D01*
X019187Y006647D01*
X019128Y006610D01*
X019067Y006576D01*
X019005Y006546D01*
X018940Y006520D01*
X018875Y006497D01*
X018808Y006478D01*
X018740Y006462D01*
X018671Y006451D01*
X018602Y006443D01*
X018533Y006439D01*
X018463Y006440D01*
X018394Y006444D01*
X018325Y006451D01*
X018256Y006463D01*
X018189Y006479D01*
X018122Y006498D01*
X018056Y006521D01*
X017992Y006548D01*
X017929Y006578D01*
X017868Y006612D01*
X017810Y006649D01*
X017753Y006689D01*
X017699Y006732D01*
X017647Y006779D01*
X017598Y006828D01*
X017551Y006880D01*
X017508Y006934D01*
X017468Y006991D01*
X017431Y007050D01*
X017397Y007111D01*
X017367Y007174D01*
X017340Y007238D01*
X017317Y007303D01*
X017298Y007370D01*
X017283Y007438D01*
X017271Y007507D01*
X017263Y007576D01*
X017259Y007645D01*
X017259Y007715D01*
X017263Y007784D01*
X017271Y007853D01*
X017283Y007922D01*
X017298Y007990D01*
X017317Y008057D01*
X017340Y008122D01*
X017367Y008186D01*
X017397Y008249D01*
X017431Y008310D01*
X017468Y008369D01*
X017508Y008426D01*
X017551Y008480D01*
X017598Y008532D01*
X017647Y008581D01*
X017699Y008628D01*
X017753Y008671D01*
X017810Y008711D01*
X017868Y008748D01*
X017929Y008782D01*
X017992Y008812D01*
X018056Y008839D01*
X018122Y008862D01*
X018189Y008881D01*
X018256Y008897D01*
X018325Y008909D01*
X018394Y008916D01*
X018463Y008920D01*
X018533Y008921D01*
X018602Y008917D01*
X018671Y008909D01*
X018740Y008898D01*
X018808Y008882D01*
X018875Y008863D01*
X018940Y008840D01*
X019005Y008814D01*
X019067Y008784D01*
X019128Y008750D01*
X019187Y008713D01*
X019244Y008673D01*
X019299Y008630D01*
X019351Y008584D01*
X019400Y008535D01*
X019446Y008483D01*
X019490Y008429D01*
X019483Y008423D01*
X019439Y008477D01*
X019393Y008528D01*
X019344Y008577D01*
X019293Y008623D01*
X019239Y008666D01*
X019182Y008706D01*
X019124Y008742D01*
X019063Y008776D01*
X019001Y008806D01*
X018937Y008832D01*
X018872Y008854D01*
X018806Y008873D01*
X018738Y008889D01*
X018670Y008900D01*
X018602Y008908D01*
X018533Y008912D01*
X018464Y008911D01*
X018395Y008907D01*
X018326Y008900D01*
X018258Y008888D01*
X018191Y008873D01*
X018124Y008853D01*
X018059Y008830D01*
X017996Y008804D01*
X017933Y008774D01*
X017873Y008741D01*
X017815Y008704D01*
X017758Y008664D01*
X017704Y008621D01*
X017653Y008575D01*
X017604Y008526D01*
X017558Y008474D01*
X017515Y008420D01*
X017475Y008364D01*
X017439Y008305D01*
X017405Y008245D01*
X017375Y008183D01*
X017349Y008119D01*
X017326Y008054D01*
X017307Y007987D01*
X017292Y007920D01*
X017280Y007852D01*
X017272Y007783D01*
X017268Y007715D01*
X017268Y007645D01*
X017272Y007577D01*
X017280Y007508D01*
X017292Y007440D01*
X017307Y007373D01*
X017326Y007306D01*
X017349Y007241D01*
X017375Y007177D01*
X017405Y007115D01*
X017439Y007055D01*
X017475Y006996D01*
X017515Y006940D01*
X017558Y006886D01*
X017604Y006834D01*
X017653Y006785D01*
X017704Y006739D01*
X017758Y006696D01*
X017815Y006656D01*
X017873Y006619D01*
X017933Y006586D01*
X017996Y006556D01*
X018059Y006530D01*
X018124Y006507D01*
X018191Y006487D01*
X018258Y006472D01*
X018326Y006460D01*
X018395Y006453D01*
X018464Y006449D01*
X018533Y006448D01*
X018602Y006452D01*
X018670Y006460D01*
X018738Y006471D01*
X018806Y006487D01*
X018872Y006506D01*
X018937Y006528D01*
X019001Y006554D01*
X019063Y006584D01*
X019124Y006618D01*
X019182Y006654D01*
X019239Y006694D01*
X019293Y006737D01*
X019344Y006783D01*
X019393Y006832D01*
X019439Y006883D01*
X019483Y006937D01*
X019475Y006942D01*
X019432Y006888D01*
X019386Y006837D01*
X019336Y006788D01*
X019285Y006742D01*
X019230Y006699D01*
X019173Y006659D01*
X019115Y006623D01*
X019054Y006589D01*
X018991Y006560D01*
X018927Y006534D01*
X018861Y006512D01*
X018794Y006493D01*
X018727Y006478D01*
X018658Y006467D01*
X018589Y006460D01*
X018520Y006457D01*
X018451Y006458D01*
X018381Y006463D01*
X018313Y006471D01*
X018245Y006484D01*
X018177Y006500D01*
X018111Y006521D01*
X018046Y006544D01*
X017982Y006572D01*
X017920Y006603D01*
X017860Y006638D01*
X017802Y006676D01*
X017746Y006717D01*
X017693Y006761D01*
X017642Y006808D01*
X017594Y006858D01*
X017549Y006911D01*
X017507Y006966D01*
X017468Y007023D01*
X017433Y007083D01*
X017401Y007144D01*
X017372Y007207D01*
X017347Y007272D01*
X017326Y007338D01*
X017308Y007405D01*
X017295Y007473D01*
X017285Y007542D01*
X017279Y007611D01*
X017277Y007680D01*
X017279Y007749D01*
X017285Y007818D01*
X017295Y007887D01*
X017308Y007955D01*
X017326Y008022D01*
X017347Y008088D01*
X017372Y008153D01*
X017401Y008216D01*
X017433Y008277D01*
X017468Y008337D01*
X017507Y008394D01*
X017549Y008449D01*
X017594Y008502D01*
X017642Y008552D01*
X017693Y008599D01*
X017746Y008643D01*
X017802Y008684D01*
X017860Y008722D01*
X017920Y008757D01*
X017982Y008788D01*
X018046Y008816D01*
X018111Y008839D01*
X018177Y008860D01*
X018245Y008876D01*
X018313Y008889D01*
X018381Y008897D01*
X018451Y008902D01*
X018520Y008903D01*
X018589Y008900D01*
X018658Y008893D01*
X018727Y008882D01*
X018794Y008867D01*
X018861Y008848D01*
X018927Y008826D01*
X018991Y008800D01*
X019054Y008771D01*
X019115Y008737D01*
X019173Y008701D01*
X019230Y008661D01*
X019285Y008618D01*
X019336Y008572D01*
X019386Y008523D01*
X019432Y008472D01*
X019475Y008418D01*
X019468Y008412D01*
X019425Y008466D01*
X019379Y008517D01*
X019330Y008566D01*
X019279Y008611D01*
X019225Y008654D01*
X019168Y008693D01*
X019110Y008730D01*
X019050Y008763D01*
X018987Y008792D01*
X018924Y008818D01*
X018858Y008840D01*
X018792Y008858D01*
X018725Y008873D01*
X018657Y008884D01*
X018588Y008891D01*
X018520Y008894D01*
X018451Y008893D01*
X018382Y008888D01*
X018314Y008880D01*
X018246Y008867D01*
X018180Y008851D01*
X018114Y008831D01*
X018049Y008807D01*
X017986Y008780D01*
X017925Y008749D01*
X017865Y008715D01*
X017807Y008677D01*
X017752Y008636D01*
X017699Y008592D01*
X017649Y008545D01*
X017601Y008496D01*
X017556Y008444D01*
X017514Y008389D01*
X017476Y008332D01*
X017441Y008273D01*
X017409Y008212D01*
X017380Y008149D01*
X017356Y008085D01*
X017334Y008019D01*
X017317Y007953D01*
X017304Y007885D01*
X017294Y007817D01*
X017288Y007749D01*
X017286Y007680D01*
X017288Y007611D01*
X017294Y007543D01*
X017304Y007475D01*
X017317Y007407D01*
X017334Y007341D01*
X017356Y007275D01*
X017380Y007211D01*
X017409Y007148D01*
X017441Y007087D01*
X017476Y007028D01*
X017514Y006971D01*
X017556Y006916D01*
X017601Y006864D01*
X017649Y006815D01*
X017699Y006768D01*
X017752Y006724D01*
X017807Y006683D01*
X017865Y006645D01*
X017925Y006611D01*
X017986Y006580D01*
X018049Y006553D01*
X018114Y006529D01*
X018180Y006509D01*
X018246Y006493D01*
X018314Y006480D01*
X018382Y006472D01*
X018451Y006467D01*
X018520Y006466D01*
X018588Y006469D01*
X018657Y006476D01*
X018725Y006487D01*
X018792Y006502D01*
X018858Y006520D01*
X018924Y006542D01*
X018987Y006568D01*
X019050Y006597D01*
X019110Y006630D01*
X019168Y006667D01*
X019225Y006706D01*
X019279Y006749D01*
X019330Y006794D01*
X019379Y006843D01*
X019425Y006894D01*
X019468Y006948D01*
X019532Y004460D02*
X019460Y004406D01*
X019461Y004407D02*
X019418Y004460D01*
X019373Y004511D01*
X019324Y004559D01*
X019273Y004604D01*
X019219Y004647D01*
X019163Y004686D01*
X019105Y004722D01*
X019045Y004755D01*
X018984Y004784D01*
X018920Y004809D01*
X018856Y004831D01*
X018790Y004850D01*
X018723Y004864D01*
X018656Y004875D01*
X018588Y004882D01*
X018520Y004885D01*
X018451Y004884D01*
X018383Y004879D01*
X018315Y004871D01*
X018248Y004858D01*
X018182Y004842D01*
X018117Y004822D01*
X018052Y004799D01*
X017990Y004772D01*
X017929Y004741D01*
X017870Y004707D01*
X017812Y004670D01*
X017757Y004629D01*
X017705Y004585D01*
X017655Y004539D01*
X017608Y004490D01*
X017563Y004438D01*
X017522Y004384D01*
X017483Y004327D01*
X017448Y004268D01*
X017417Y004208D01*
X017389Y004146D01*
X017364Y004082D01*
X017343Y004017D01*
X017326Y003951D01*
X017312Y003884D01*
X017303Y003816D01*
X017297Y003748D01*
X017295Y003680D01*
X017297Y003612D01*
X017303Y003544D01*
X017312Y003476D01*
X017326Y003409D01*
X017343Y003343D01*
X017364Y003278D01*
X017389Y003214D01*
X017417Y003152D01*
X017448Y003092D01*
X017483Y003033D01*
X017522Y002976D01*
X017563Y002922D01*
X017608Y002870D01*
X017655Y002821D01*
X017705Y002775D01*
X017757Y002731D01*
X017812Y002690D01*
X017870Y002653D01*
X017929Y002619D01*
X017990Y002588D01*
X018052Y002561D01*
X018117Y002538D01*
X018182Y002518D01*
X018248Y002502D01*
X018315Y002489D01*
X018383Y002481D01*
X018451Y002476D01*
X018520Y002475D01*
X018588Y002478D01*
X018656Y002485D01*
X018723Y002496D01*
X018790Y002510D01*
X018856Y002529D01*
X018920Y002551D01*
X018984Y002576D01*
X019045Y002605D01*
X019105Y002638D01*
X019163Y002674D01*
X019219Y002713D01*
X019273Y002756D01*
X019324Y002801D01*
X019373Y002849D01*
X019418Y002900D01*
X019461Y002953D01*
X019532Y002900D01*
X019533Y002899D01*
X019489Y002844D01*
X019441Y002791D01*
X019391Y002740D01*
X019338Y002693D01*
X019283Y002649D01*
X019225Y002607D01*
X019165Y002569D01*
X019104Y002534D01*
X019040Y002503D01*
X018975Y002475D01*
X018908Y002451D01*
X018840Y002430D01*
X018771Y002414D01*
X018701Y002401D01*
X018631Y002392D01*
X018560Y002386D01*
X018489Y002385D01*
X018418Y002388D01*
X018347Y002394D01*
X018277Y002404D01*
X018208Y002418D01*
X018139Y002436D01*
X018071Y002458D01*
X018005Y002483D01*
X017940Y002512D01*
X017877Y002545D01*
X017816Y002581D01*
X017757Y002620D01*
X017700Y002662D01*
X017645Y002707D01*
X017593Y002756D01*
X017544Y002807D01*
X017497Y002860D01*
X017454Y002917D01*
X017414Y002975D01*
X017377Y003036D01*
X017343Y003098D01*
X017313Y003162D01*
X017286Y003228D01*
X017263Y003295D01*
X017244Y003364D01*
X017229Y003433D01*
X017217Y003503D01*
X017209Y003574D01*
X017205Y003645D01*
X017205Y003715D01*
X017209Y003786D01*
X017217Y003857D01*
X017229Y003927D01*
X017244Y003996D01*
X017263Y004065D01*
X017286Y004132D01*
X017313Y004198D01*
X017343Y004262D01*
X017377Y004324D01*
X017414Y004385D01*
X017454Y004443D01*
X017497Y004500D01*
X017544Y004553D01*
X017593Y004604D01*
X017645Y004653D01*
X017700Y004698D01*
X017757Y004740D01*
X017816Y004779D01*
X017877Y004815D01*
X017940Y004848D01*
X018005Y004877D01*
X018071Y004902D01*
X018139Y004924D01*
X018208Y004942D01*
X018277Y004956D01*
X018347Y004966D01*
X018418Y004972D01*
X018489Y004975D01*
X018560Y004974D01*
X018631Y004968D01*
X018701Y004959D01*
X018771Y004946D01*
X018840Y004930D01*
X018908Y004909D01*
X018975Y004885D01*
X019040Y004857D01*
X019104Y004826D01*
X019165Y004791D01*
X019225Y004753D01*
X019283Y004711D01*
X019338Y004667D01*
X019391Y004620D01*
X019441Y004569D01*
X019489Y004516D01*
X019533Y004461D01*
X019526Y004456D01*
X019481Y004511D01*
X019434Y004564D01*
X019383Y004615D01*
X019330Y004662D01*
X019274Y004707D01*
X019216Y004748D01*
X019156Y004786D01*
X019094Y004821D01*
X019030Y004852D01*
X018964Y004879D01*
X018897Y004903D01*
X018828Y004923D01*
X018759Y004940D01*
X018689Y004952D01*
X018618Y004961D01*
X018547Y004965D01*
X018476Y004966D01*
X018405Y004962D01*
X018334Y004955D01*
X018263Y004944D01*
X018194Y004929D01*
X018125Y004910D01*
X018057Y004887D01*
X017991Y004861D01*
X017926Y004831D01*
X017864Y004797D01*
X017803Y004761D01*
X017744Y004720D01*
X017687Y004677D01*
X017633Y004630D01*
X017582Y004581D01*
X017534Y004528D01*
X017488Y004474D01*
X017446Y004416D01*
X017407Y004357D01*
X017371Y004295D01*
X017338Y004232D01*
X017310Y004167D01*
X017284Y004100D01*
X017263Y004032D01*
X017245Y003963D01*
X017232Y003893D01*
X017222Y003822D01*
X017216Y003751D01*
X017214Y003680D01*
X017216Y003609D01*
X017222Y003538D01*
X017232Y003467D01*
X017245Y003397D01*
X017263Y003328D01*
X017284Y003260D01*
X017310Y003193D01*
X017338Y003128D01*
X017371Y003065D01*
X017407Y003003D01*
X017446Y002944D01*
X017488Y002886D01*
X017534Y002832D01*
X017582Y002779D01*
X017633Y002730D01*
X017687Y002683D01*
X017744Y002640D01*
X017803Y002599D01*
X017864Y002563D01*
X017926Y002529D01*
X017991Y002499D01*
X018057Y002473D01*
X018125Y002450D01*
X018194Y002431D01*
X018263Y002416D01*
X018334Y002405D01*
X018405Y002398D01*
X018476Y002394D01*
X018547Y002395D01*
X018618Y002399D01*
X018689Y002408D01*
X018759Y002420D01*
X018828Y002437D01*
X018897Y002457D01*
X018964Y002481D01*
X019030Y002508D01*
X019094Y002539D01*
X019156Y002574D01*
X019216Y002612D01*
X019274Y002653D01*
X019330Y002698D01*
X019383Y002745D01*
X019434Y002796D01*
X019481Y002849D01*
X019526Y002904D01*
X019519Y002910D01*
X019474Y002855D01*
X019427Y002802D01*
X019377Y002752D01*
X019324Y002705D01*
X019269Y002661D01*
X019211Y002619D01*
X019152Y002582D01*
X019090Y002547D01*
X019026Y002516D01*
X018961Y002489D01*
X018894Y002465D01*
X018826Y002445D01*
X018757Y002429D01*
X018688Y002417D01*
X018617Y002408D01*
X018547Y002404D01*
X018476Y002403D01*
X018405Y002407D01*
X018335Y002414D01*
X018265Y002425D01*
X018196Y002440D01*
X018128Y002459D01*
X018060Y002481D01*
X017995Y002507D01*
X017930Y002537D01*
X017868Y002570D01*
X017808Y002607D01*
X017749Y002647D01*
X017693Y002690D01*
X017639Y002736D01*
X017589Y002786D01*
X017540Y002837D01*
X017495Y002892D01*
X017453Y002949D01*
X017414Y003008D01*
X017379Y003069D01*
X017346Y003132D01*
X017318Y003197D01*
X017293Y003263D01*
X017272Y003331D01*
X017254Y003399D01*
X017241Y003469D01*
X017231Y003539D01*
X017225Y003609D01*
X017223Y003680D01*
X017225Y003751D01*
X017231Y003821D01*
X017241Y003891D01*
X017254Y003961D01*
X017272Y004029D01*
X017293Y004097D01*
X017318Y004163D01*
X017346Y004228D01*
X017379Y004291D01*
X017414Y004352D01*
X017453Y004411D01*
X017495Y004468D01*
X017540Y004523D01*
X017589Y004574D01*
X017639Y004624D01*
X017693Y004670D01*
X017749Y004713D01*
X017808Y004753D01*
X017868Y004790D01*
X017930Y004823D01*
X017995Y004853D01*
X018060Y004879D01*
X018128Y004901D01*
X018196Y004920D01*
X018265Y004935D01*
X018335Y004946D01*
X018405Y004953D01*
X018476Y004957D01*
X018547Y004956D01*
X018617Y004952D01*
X018688Y004943D01*
X018757Y004931D01*
X018826Y004915D01*
X018894Y004895D01*
X018961Y004871D01*
X019026Y004844D01*
X019090Y004813D01*
X019152Y004778D01*
X019211Y004741D01*
X019269Y004699D01*
X019324Y004655D01*
X019377Y004608D01*
X019427Y004558D01*
X019474Y004505D01*
X019519Y004450D01*
X019511Y004445D01*
X019467Y004500D01*
X019419Y004553D01*
X019369Y004603D01*
X019316Y004651D01*
X019260Y004695D01*
X019202Y004736D01*
X019142Y004773D01*
X019080Y004808D01*
X019016Y004838D01*
X018950Y004865D01*
X018883Y004889D01*
X018815Y004908D01*
X018745Y004924D01*
X018675Y004936D01*
X018605Y004944D01*
X018534Y004948D01*
X018463Y004947D01*
X018392Y004943D01*
X018321Y004935D01*
X018251Y004923D01*
X018182Y004907D01*
X018114Y004888D01*
X018046Y004864D01*
X017981Y004837D01*
X017917Y004806D01*
X017855Y004772D01*
X017795Y004734D01*
X017737Y004692D01*
X017681Y004648D01*
X017628Y004601D01*
X017578Y004550D01*
X017531Y004497D01*
X017486Y004442D01*
X017445Y004384D01*
X017408Y004324D01*
X017373Y004261D01*
X017342Y004197D01*
X017315Y004132D01*
X017292Y004065D01*
X017272Y003996D01*
X017256Y003927D01*
X017244Y003857D01*
X017236Y003786D01*
X017232Y003716D01*
X017232Y003644D01*
X017236Y003574D01*
X017244Y003503D01*
X017256Y003433D01*
X017272Y003364D01*
X017292Y003295D01*
X017315Y003228D01*
X017342Y003163D01*
X017373Y003099D01*
X017408Y003036D01*
X017445Y002976D01*
X017486Y002918D01*
X017531Y002863D01*
X017578Y002810D01*
X017628Y002759D01*
X017681Y002712D01*
X017737Y002668D01*
X017795Y002626D01*
X017855Y002588D01*
X017917Y002554D01*
X017981Y002523D01*
X018046Y002496D01*
X018114Y002472D01*
X018182Y002453D01*
X018251Y002437D01*
X018321Y002425D01*
X018392Y002417D01*
X018463Y002413D01*
X018534Y002412D01*
X018605Y002416D01*
X018675Y002424D01*
X018745Y002436D01*
X018815Y002452D01*
X018883Y002471D01*
X018950Y002495D01*
X019016Y002522D01*
X019080Y002552D01*
X019142Y002587D01*
X019202Y002624D01*
X019260Y002665D01*
X019316Y002709D01*
X019369Y002757D01*
X019419Y002807D01*
X019467Y002860D01*
X019511Y002915D01*
X019504Y002921D01*
X019460Y002866D01*
X019413Y002813D01*
X019363Y002763D01*
X019310Y002716D01*
X019255Y002672D01*
X019197Y002632D01*
X019138Y002594D01*
X019076Y002560D01*
X019012Y002530D01*
X018947Y002503D01*
X018880Y002480D01*
X018812Y002460D01*
X018744Y002445D01*
X018674Y002433D01*
X018604Y002425D01*
X018533Y002421D01*
X018463Y002422D01*
X018392Y002426D01*
X018322Y002434D01*
X018253Y002446D01*
X018184Y002461D01*
X018116Y002481D01*
X018050Y002504D01*
X017985Y002531D01*
X017921Y002562D01*
X017859Y002596D01*
X017800Y002634D01*
X017742Y002675D01*
X017687Y002719D01*
X017634Y002766D01*
X017585Y002816D01*
X017538Y002868D01*
X017494Y002924D01*
X017453Y002981D01*
X017415Y003041D01*
X017381Y003103D01*
X017351Y003166D01*
X017324Y003231D01*
X017300Y003298D01*
X017281Y003366D01*
X017265Y003435D01*
X017253Y003504D01*
X017245Y003574D01*
X017241Y003645D01*
X017241Y003715D01*
X017245Y003786D01*
X017253Y003856D01*
X017265Y003925D01*
X017281Y003994D01*
X017300Y004062D01*
X017324Y004129D01*
X017351Y004194D01*
X017381Y004257D01*
X017415Y004319D01*
X017453Y004379D01*
X017494Y004436D01*
X017538Y004492D01*
X017585Y004544D01*
X017634Y004594D01*
X017687Y004641D01*
X017742Y004685D01*
X017800Y004726D01*
X017859Y004764D01*
X017921Y004798D01*
X017985Y004829D01*
X018050Y004856D01*
X018116Y004879D01*
X018184Y004899D01*
X018253Y004914D01*
X018322Y004926D01*
X018392Y004934D01*
X018463Y004938D01*
X018533Y004939D01*
X018604Y004935D01*
X018674Y004927D01*
X018744Y004915D01*
X018812Y004900D01*
X018880Y004880D01*
X018947Y004857D01*
X019012Y004830D01*
X019076Y004800D01*
X019138Y004766D01*
X019197Y004728D01*
X019255Y004688D01*
X019310Y004644D01*
X019363Y004597D01*
X019413Y004547D01*
X019460Y004494D01*
X019504Y004439D01*
X019497Y004434D01*
X019453Y004489D01*
X019406Y004541D01*
X019357Y004590D01*
X019304Y004637D01*
X019250Y004680D01*
X019192Y004721D01*
X019133Y004758D01*
X019072Y004792D01*
X019008Y004822D01*
X018944Y004849D01*
X018877Y004872D01*
X018810Y004891D01*
X018742Y004906D01*
X018673Y004918D01*
X018603Y004926D01*
X018533Y004930D01*
X018463Y004929D01*
X018393Y004925D01*
X018324Y004917D01*
X018255Y004906D01*
X018186Y004890D01*
X018119Y004871D01*
X018053Y004847D01*
X017988Y004820D01*
X017925Y004790D01*
X017864Y004756D01*
X017805Y004719D01*
X017747Y004678D01*
X017693Y004634D01*
X017641Y004588D01*
X017591Y004538D01*
X017544Y004486D01*
X017501Y004431D01*
X017460Y004374D01*
X017423Y004315D01*
X017389Y004253D01*
X017359Y004190D01*
X017332Y004125D01*
X017309Y004059D01*
X017290Y003992D01*
X017274Y003924D01*
X017262Y003855D01*
X017254Y003785D01*
X017250Y003715D01*
X017250Y003645D01*
X017254Y003575D01*
X017262Y003505D01*
X017274Y003436D01*
X017290Y003368D01*
X017309Y003301D01*
X017332Y003235D01*
X017359Y003170D01*
X017389Y003107D01*
X017423Y003045D01*
X017460Y002986D01*
X017501Y002929D01*
X017544Y002874D01*
X017591Y002822D01*
X017641Y002772D01*
X017693Y002726D01*
X017747Y002682D01*
X017805Y002641D01*
X017864Y002604D01*
X017925Y002570D01*
X017988Y002540D01*
X018053Y002513D01*
X018119Y002489D01*
X018186Y002470D01*
X018255Y002454D01*
X018324Y002443D01*
X018393Y002435D01*
X018463Y002431D01*
X018533Y002430D01*
X018603Y002434D01*
X018673Y002442D01*
X018742Y002454D01*
X018810Y002469D01*
X018877Y002488D01*
X018944Y002511D01*
X019008Y002538D01*
X019072Y002568D01*
X019133Y002602D01*
X019192Y002639D01*
X019250Y002680D01*
X019304Y002723D01*
X019357Y002770D01*
X019406Y002819D01*
X019453Y002871D01*
X019497Y002926D01*
X019490Y002931D01*
X019446Y002877D01*
X019400Y002825D01*
X019351Y002776D01*
X019299Y002730D01*
X019244Y002687D01*
X019187Y002647D01*
X019128Y002610D01*
X019067Y002576D01*
X019005Y002546D01*
X018940Y002520D01*
X018875Y002497D01*
X018808Y002478D01*
X018740Y002462D01*
X018671Y002451D01*
X018602Y002443D01*
X018533Y002439D01*
X018463Y002440D01*
X018394Y002444D01*
X018325Y002451D01*
X018256Y002463D01*
X018189Y002479D01*
X018122Y002498D01*
X018056Y002521D01*
X017992Y002548D01*
X017929Y002578D01*
X017868Y002612D01*
X017810Y002649D01*
X017753Y002689D01*
X017699Y002732D01*
X017647Y002779D01*
X017598Y002828D01*
X017551Y002880D01*
X017508Y002934D01*
X017468Y002991D01*
X017431Y003050D01*
X017397Y003111D01*
X017367Y003174D01*
X017340Y003238D01*
X017317Y003303D01*
X017298Y003370D01*
X017283Y003438D01*
X017271Y003507D01*
X017263Y003576D01*
X017259Y003645D01*
X017259Y003715D01*
X017263Y003784D01*
X017271Y003853D01*
X017283Y003922D01*
X017298Y003990D01*
X017317Y004057D01*
X017340Y004122D01*
X017367Y004186D01*
X017397Y004249D01*
X017431Y004310D01*
X017468Y004369D01*
X017508Y004426D01*
X017551Y004480D01*
X017598Y004532D01*
X017647Y004581D01*
X017699Y004628D01*
X017753Y004671D01*
X017810Y004711D01*
X017868Y004748D01*
X017929Y004782D01*
X017992Y004812D01*
X018056Y004839D01*
X018122Y004862D01*
X018189Y004881D01*
X018256Y004897D01*
X018325Y004909D01*
X018394Y004916D01*
X018463Y004920D01*
X018533Y004921D01*
X018602Y004917D01*
X018671Y004909D01*
X018740Y004898D01*
X018808Y004882D01*
X018875Y004863D01*
X018940Y004840D01*
X019005Y004814D01*
X019067Y004784D01*
X019128Y004750D01*
X019187Y004713D01*
X019244Y004673D01*
X019299Y004630D01*
X019351Y004584D01*
X019400Y004535D01*
X019446Y004483D01*
X019490Y004429D01*
X019483Y004423D01*
X019439Y004477D01*
X019393Y004528D01*
X019344Y004577D01*
X019293Y004623D01*
X019239Y004666D01*
X019182Y004706D01*
X019124Y004742D01*
X019063Y004776D01*
X019001Y004806D01*
X018937Y004832D01*
X018872Y004854D01*
X018806Y004873D01*
X018738Y004889D01*
X018670Y004900D01*
X018602Y004908D01*
X018533Y004912D01*
X018464Y004911D01*
X018395Y004907D01*
X018326Y004900D01*
X018258Y004888D01*
X018191Y004873D01*
X018124Y004853D01*
X018059Y004830D01*
X017996Y004804D01*
X017933Y004774D01*
X017873Y004741D01*
X017815Y004704D01*
X017758Y004664D01*
X017704Y004621D01*
X017653Y004575D01*
X017604Y004526D01*
X017558Y004474D01*
X017515Y004420D01*
X017475Y004364D01*
X017439Y004305D01*
X017405Y004245D01*
X017375Y004183D01*
X017349Y004119D01*
X017326Y004054D01*
X017307Y003987D01*
X017292Y003920D01*
X017280Y003852D01*
X017272Y003783D01*
X017268Y003715D01*
X017268Y003645D01*
X017272Y003577D01*
X017280Y003508D01*
X017292Y003440D01*
X017307Y003373D01*
X017326Y003306D01*
X017349Y003241D01*
X017375Y003177D01*
X017405Y003115D01*
X017439Y003055D01*
X017475Y002996D01*
X017515Y002940D01*
X017558Y002886D01*
X017604Y002834D01*
X017653Y002785D01*
X017704Y002739D01*
X017758Y002696D01*
X017815Y002656D01*
X017873Y002619D01*
X017933Y002586D01*
X017996Y002556D01*
X018059Y002530D01*
X018124Y002507D01*
X018191Y002487D01*
X018258Y002472D01*
X018326Y002460D01*
X018395Y002453D01*
X018464Y002449D01*
X018533Y002448D01*
X018602Y002452D01*
X018670Y002460D01*
X018738Y002471D01*
X018806Y002487D01*
X018872Y002506D01*
X018937Y002528D01*
X019001Y002554D01*
X019063Y002584D01*
X019124Y002618D01*
X019182Y002654D01*
X019239Y002694D01*
X019293Y002737D01*
X019344Y002783D01*
X019393Y002832D01*
X019439Y002883D01*
X019483Y002937D01*
X019475Y002942D01*
X019432Y002888D01*
X019386Y002837D01*
X019336Y002788D01*
X019285Y002742D01*
X019230Y002699D01*
X019173Y002659D01*
X019115Y002623D01*
X019054Y002589D01*
X018991Y002560D01*
X018927Y002534D01*
X018861Y002512D01*
X018794Y002493D01*
X018727Y002478D01*
X018658Y002467D01*
X018589Y002460D01*
X018520Y002457D01*
X018451Y002458D01*
X018381Y002463D01*
X018313Y002471D01*
X018245Y002484D01*
X018177Y002500D01*
X018111Y002521D01*
X018046Y002544D01*
X017982Y002572D01*
X017920Y002603D01*
X017860Y002638D01*
X017802Y002676D01*
X017746Y002717D01*
X017693Y002761D01*
X017642Y002808D01*
X017594Y002858D01*
X017549Y002911D01*
X017507Y002966D01*
X017468Y003023D01*
X017433Y003083D01*
X017401Y003144D01*
X017372Y003207D01*
X017347Y003272D01*
X017326Y003338D01*
X017308Y003405D01*
X017295Y003473D01*
X017285Y003542D01*
X017279Y003611D01*
X017277Y003680D01*
X017279Y003749D01*
X017285Y003818D01*
X017295Y003887D01*
X017308Y003955D01*
X017326Y004022D01*
X017347Y004088D01*
X017372Y004153D01*
X017401Y004216D01*
X017433Y004277D01*
X017468Y004337D01*
X017507Y004394D01*
X017549Y004449D01*
X017594Y004502D01*
X017642Y004552D01*
X017693Y004599D01*
X017746Y004643D01*
X017802Y004684D01*
X017860Y004722D01*
X017920Y004757D01*
X017982Y004788D01*
X018046Y004816D01*
X018111Y004839D01*
X018177Y004860D01*
X018245Y004876D01*
X018313Y004889D01*
X018381Y004897D01*
X018451Y004902D01*
X018520Y004903D01*
X018589Y004900D01*
X018658Y004893D01*
X018727Y004882D01*
X018794Y004867D01*
X018861Y004848D01*
X018927Y004826D01*
X018991Y004800D01*
X019054Y004771D01*
X019115Y004737D01*
X019173Y004701D01*
X019230Y004661D01*
X019285Y004618D01*
X019336Y004572D01*
X019386Y004523D01*
X019432Y004472D01*
X019475Y004418D01*
X019468Y004412D01*
X019425Y004466D01*
X019379Y004517D01*
X019330Y004566D01*
X019279Y004611D01*
X019225Y004654D01*
X019168Y004693D01*
X019110Y004730D01*
X019050Y004763D01*
X018987Y004792D01*
X018924Y004818D01*
X018858Y004840D01*
X018792Y004858D01*
X018725Y004873D01*
X018657Y004884D01*
X018588Y004891D01*
X018520Y004894D01*
X018451Y004893D01*
X018382Y004888D01*
X018314Y004880D01*
X018246Y004867D01*
X018180Y004851D01*
X018114Y004831D01*
X018049Y004807D01*
X017986Y004780D01*
X017925Y004749D01*
X017865Y004715D01*
X017807Y004677D01*
X017752Y004636D01*
X017699Y004592D01*
X017649Y004545D01*
X017601Y004496D01*
X017556Y004444D01*
X017514Y004389D01*
X017476Y004332D01*
X017441Y004273D01*
X017409Y004212D01*
X017380Y004149D01*
X017356Y004085D01*
X017334Y004019D01*
X017317Y003953D01*
X017304Y003885D01*
X017294Y003817D01*
X017288Y003749D01*
X017286Y003680D01*
X017288Y003611D01*
X017294Y003543D01*
X017304Y003475D01*
X017317Y003407D01*
X017334Y003341D01*
X017356Y003275D01*
X017380Y003211D01*
X017409Y003148D01*
X017441Y003087D01*
X017476Y003028D01*
X017514Y002971D01*
X017556Y002916D01*
X017601Y002864D01*
X017649Y002815D01*
X017699Y002768D01*
X017752Y002724D01*
X017807Y002683D01*
X017865Y002645D01*
X017925Y002611D01*
X017986Y002580D01*
X018049Y002553D01*
X018114Y002529D01*
X018180Y002509D01*
X018246Y002493D01*
X018314Y002480D01*
X018382Y002472D01*
X018451Y002467D01*
X018520Y002466D01*
X018588Y002469D01*
X018657Y002476D01*
X018725Y002487D01*
X018792Y002502D01*
X018858Y002520D01*
X018924Y002542D01*
X018987Y002568D01*
X019050Y002597D01*
X019110Y002630D01*
X019168Y002667D01*
X019225Y002706D01*
X019279Y002749D01*
X019330Y002794D01*
X019379Y002843D01*
X019425Y002894D01*
X019468Y002948D01*
X019532Y012960D02*
X019460Y012906D01*
X019461Y012907D02*
X019418Y012960D01*
X019373Y013011D01*
X019324Y013059D01*
X019273Y013104D01*
X019219Y013147D01*
X019163Y013186D01*
X019105Y013222D01*
X019045Y013255D01*
X018984Y013284D01*
X018920Y013309D01*
X018856Y013331D01*
X018790Y013350D01*
X018723Y013364D01*
X018656Y013375D01*
X018588Y013382D01*
X018520Y013385D01*
X018451Y013384D01*
X018383Y013379D01*
X018315Y013371D01*
X018248Y013358D01*
X018182Y013342D01*
X018117Y013322D01*
X018052Y013299D01*
X017990Y013272D01*
X017929Y013241D01*
X017870Y013207D01*
X017812Y013170D01*
X017757Y013129D01*
X017705Y013085D01*
X017655Y013039D01*
X017608Y012990D01*
X017563Y012938D01*
X017522Y012884D01*
X017483Y012827D01*
X017448Y012768D01*
X017417Y012708D01*
X017389Y012646D01*
X017364Y012582D01*
X017343Y012517D01*
X017326Y012451D01*
X017312Y012384D01*
X017303Y012316D01*
X017297Y012248D01*
X017295Y012180D01*
X017297Y012112D01*
X017303Y012044D01*
X017312Y011976D01*
X017326Y011909D01*
X017343Y011843D01*
X017364Y011778D01*
X017389Y011714D01*
X017417Y011652D01*
X017448Y011592D01*
X017483Y011533D01*
X017522Y011476D01*
X017563Y011422D01*
X017608Y011370D01*
X017655Y011321D01*
X017705Y011275D01*
X017757Y011231D01*
X017812Y011190D01*
X017870Y011153D01*
X017929Y011119D01*
X017990Y011088D01*
X018052Y011061D01*
X018117Y011038D01*
X018182Y011018D01*
X018248Y011002D01*
X018315Y010989D01*
X018383Y010981D01*
X018451Y010976D01*
X018520Y010975D01*
X018588Y010978D01*
X018656Y010985D01*
X018723Y010996D01*
X018790Y011010D01*
X018856Y011029D01*
X018920Y011051D01*
X018984Y011076D01*
X019045Y011105D01*
X019105Y011138D01*
X019163Y011174D01*
X019219Y011213D01*
X019273Y011256D01*
X019324Y011301D01*
X019373Y011349D01*
X019418Y011400D01*
X019461Y011453D01*
X019532Y011400D01*
X019533Y011399D01*
X019489Y011344D01*
X019441Y011291D01*
X019391Y011240D01*
X019338Y011193D01*
X019283Y011149D01*
X019225Y011107D01*
X019165Y011069D01*
X019104Y011034D01*
X019040Y011003D01*
X018975Y010975D01*
X018908Y010951D01*
X018840Y010930D01*
X018771Y010914D01*
X018701Y010901D01*
X018631Y010892D01*
X018560Y010886D01*
X018489Y010885D01*
X018418Y010888D01*
X018347Y010894D01*
X018277Y010904D01*
X018208Y010918D01*
X018139Y010936D01*
X018071Y010958D01*
X018005Y010983D01*
X017940Y011012D01*
X017877Y011045D01*
X017816Y011081D01*
X017757Y011120D01*
X017700Y011162D01*
X017645Y011207D01*
X017593Y011256D01*
X017544Y011307D01*
X017497Y011360D01*
X017454Y011417D01*
X017414Y011475D01*
X017377Y011536D01*
X017343Y011598D01*
X017313Y011662D01*
X017286Y011728D01*
X017263Y011795D01*
X017244Y011864D01*
X017229Y011933D01*
X017217Y012003D01*
X017209Y012074D01*
X017205Y012145D01*
X017205Y012215D01*
X017209Y012286D01*
X017217Y012357D01*
X017229Y012427D01*
X017244Y012496D01*
X017263Y012565D01*
X017286Y012632D01*
X017313Y012698D01*
X017343Y012762D01*
X017377Y012824D01*
X017414Y012885D01*
X017454Y012943D01*
X017497Y013000D01*
X017544Y013053D01*
X017593Y013104D01*
X017645Y013153D01*
X017700Y013198D01*
X017757Y013240D01*
X017816Y013279D01*
X017877Y013315D01*
X017940Y013348D01*
X018005Y013377D01*
X018071Y013402D01*
X018139Y013424D01*
X018208Y013442D01*
X018277Y013456D01*
X018347Y013466D01*
X018418Y013472D01*
X018489Y013475D01*
X018560Y013474D01*
X018631Y013468D01*
X018701Y013459D01*
X018771Y013446D01*
X018840Y013430D01*
X018908Y013409D01*
X018975Y013385D01*
X019040Y013357D01*
X019104Y013326D01*
X019165Y013291D01*
X019225Y013253D01*
X019283Y013211D01*
X019338Y013167D01*
X019391Y013120D01*
X019441Y013069D01*
X019489Y013016D01*
X019533Y012961D01*
X019526Y012956D01*
X019481Y013011D01*
X019434Y013064D01*
X019383Y013115D01*
X019330Y013162D01*
X019274Y013207D01*
X019216Y013248D01*
X019156Y013286D01*
X019094Y013321D01*
X019030Y013352D01*
X018964Y013379D01*
X018897Y013403D01*
X018828Y013423D01*
X018759Y013440D01*
X018689Y013452D01*
X018618Y013461D01*
X018547Y013465D01*
X018476Y013466D01*
X018405Y013462D01*
X018334Y013455D01*
X018263Y013444D01*
X018194Y013429D01*
X018125Y013410D01*
X018057Y013387D01*
X017991Y013361D01*
X017926Y013331D01*
X017864Y013297D01*
X017803Y013261D01*
X017744Y013220D01*
X017687Y013177D01*
X017633Y013130D01*
X017582Y013081D01*
X017534Y013028D01*
X017488Y012974D01*
X017446Y012916D01*
X017407Y012857D01*
X017371Y012795D01*
X017338Y012732D01*
X017310Y012667D01*
X017284Y012600D01*
X017263Y012532D01*
X017245Y012463D01*
X017232Y012393D01*
X017222Y012322D01*
X017216Y012251D01*
X017214Y012180D01*
X017216Y012109D01*
X017222Y012038D01*
X017232Y011967D01*
X017245Y011897D01*
X017263Y011828D01*
X017284Y011760D01*
X017310Y011693D01*
X017338Y011628D01*
X017371Y011565D01*
X017407Y011503D01*
X017446Y011444D01*
X017488Y011386D01*
X017534Y011332D01*
X017582Y011279D01*
X017633Y011230D01*
X017687Y011183D01*
X017744Y011140D01*
X017803Y011099D01*
X017864Y011063D01*
X017926Y011029D01*
X017991Y010999D01*
X018057Y010973D01*
X018125Y010950D01*
X018194Y010931D01*
X018263Y010916D01*
X018334Y010905D01*
X018405Y010898D01*
X018476Y010894D01*
X018547Y010895D01*
X018618Y010899D01*
X018689Y010908D01*
X018759Y010920D01*
X018828Y010937D01*
X018897Y010957D01*
X018964Y010981D01*
X019030Y011008D01*
X019094Y011039D01*
X019156Y011074D01*
X019216Y011112D01*
X019274Y011153D01*
X019330Y011198D01*
X019383Y011245D01*
X019434Y011296D01*
X019481Y011349D01*
X019526Y011404D01*
X019519Y011410D01*
X019474Y011355D01*
X019427Y011302D01*
X019377Y011252D01*
X019324Y011205D01*
X019269Y011161D01*
X019211Y011119D01*
X019152Y011082D01*
X019090Y011047D01*
X019026Y011016D01*
X018961Y010989D01*
X018894Y010965D01*
X018826Y010945D01*
X018757Y010929D01*
X018688Y010917D01*
X018617Y010908D01*
X018547Y010904D01*
X018476Y010903D01*
X018405Y010907D01*
X018335Y010914D01*
X018265Y010925D01*
X018196Y010940D01*
X018128Y010959D01*
X018060Y010981D01*
X017995Y011007D01*
X017930Y011037D01*
X017868Y011070D01*
X017808Y011107D01*
X017749Y011147D01*
X017693Y011190D01*
X017639Y011236D01*
X017589Y011286D01*
X017540Y011337D01*
X017495Y011392D01*
X017453Y011449D01*
X017414Y011508D01*
X017379Y011569D01*
X017346Y011632D01*
X017318Y011697D01*
X017293Y011763D01*
X017272Y011831D01*
X017254Y011899D01*
X017241Y011969D01*
X017231Y012039D01*
X017225Y012109D01*
X017223Y012180D01*
X017225Y012251D01*
X017231Y012321D01*
X017241Y012391D01*
X017254Y012461D01*
X017272Y012529D01*
X017293Y012597D01*
X017318Y012663D01*
X017346Y012728D01*
X017379Y012791D01*
X017414Y012852D01*
X017453Y012911D01*
X017495Y012968D01*
X017540Y013023D01*
X017589Y013074D01*
X017639Y013124D01*
X017693Y013170D01*
X017749Y013213D01*
X017808Y013253D01*
X017868Y013290D01*
X017930Y013323D01*
X017995Y013353D01*
X018060Y013379D01*
X018128Y013401D01*
X018196Y013420D01*
X018265Y013435D01*
X018335Y013446D01*
X018405Y013453D01*
X018476Y013457D01*
X018547Y013456D01*
X018617Y013452D01*
X018688Y013443D01*
X018757Y013431D01*
X018826Y013415D01*
X018894Y013395D01*
X018961Y013371D01*
X019026Y013344D01*
X019090Y013313D01*
X019152Y013278D01*
X019211Y013241D01*
X019269Y013199D01*
X019324Y013155D01*
X019377Y013108D01*
X019427Y013058D01*
X019474Y013005D01*
X019519Y012950D01*
X019511Y012945D01*
X019467Y013000D01*
X019419Y013053D01*
X019369Y013103D01*
X019316Y013151D01*
X019260Y013195D01*
X019202Y013236D01*
X019142Y013273D01*
X019080Y013308D01*
X019016Y013338D01*
X018950Y013365D01*
X018883Y013389D01*
X018815Y013408D01*
X018745Y013424D01*
X018675Y013436D01*
X018605Y013444D01*
X018534Y013448D01*
X018463Y013447D01*
X018392Y013443D01*
X018321Y013435D01*
X018251Y013423D01*
X018182Y013407D01*
X018114Y013388D01*
X018046Y013364D01*
X017981Y013337D01*
X017917Y013306D01*
X017855Y013272D01*
X017795Y013234D01*
X017737Y013192D01*
X017681Y013148D01*
X017628Y013101D01*
X017578Y013050D01*
X017531Y012997D01*
X017486Y012942D01*
X017445Y012884D01*
X017408Y012824D01*
X017373Y012761D01*
X017342Y012697D01*
X017315Y012632D01*
X017292Y012565D01*
X017272Y012496D01*
X017256Y012427D01*
X017244Y012357D01*
X017236Y012286D01*
X017232Y012216D01*
X017232Y012144D01*
X017236Y012074D01*
X017244Y012003D01*
X017256Y011933D01*
X017272Y011864D01*
X017292Y011795D01*
X017315Y011728D01*
X017342Y011663D01*
X017373Y011599D01*
X017408Y011536D01*
X017445Y011476D01*
X017486Y011418D01*
X017531Y011363D01*
X017578Y011310D01*
X017628Y011259D01*
X017681Y011212D01*
X017737Y011168D01*
X017795Y011126D01*
X017855Y011088D01*
X017917Y011054D01*
X017981Y011023D01*
X018046Y010996D01*
X018114Y010972D01*
X018182Y010953D01*
X018251Y010937D01*
X018321Y010925D01*
X018392Y010917D01*
X018463Y010913D01*
X018534Y010912D01*
X018605Y010916D01*
X018675Y010924D01*
X018745Y010936D01*
X018815Y010952D01*
X018883Y010971D01*
X018950Y010995D01*
X019016Y011022D01*
X019080Y011052D01*
X019142Y011087D01*
X019202Y011124D01*
X019260Y011165D01*
X019316Y011209D01*
X019369Y011257D01*
X019419Y011307D01*
X019467Y011360D01*
X019511Y011415D01*
X019504Y011421D01*
X019460Y011366D01*
X019413Y011313D01*
X019363Y011263D01*
X019310Y011216D01*
X019255Y011172D01*
X019197Y011132D01*
X019138Y011094D01*
X019076Y011060D01*
X019012Y011030D01*
X018947Y011003D01*
X018880Y010980D01*
X018812Y010960D01*
X018744Y010945D01*
X018674Y010933D01*
X018604Y010925D01*
X018533Y010921D01*
X018463Y010922D01*
X018392Y010926D01*
X018322Y010934D01*
X018253Y010946D01*
X018184Y010961D01*
X018116Y010981D01*
X018050Y011004D01*
X017985Y011031D01*
X017921Y011062D01*
X017859Y011096D01*
X017800Y011134D01*
X017742Y011175D01*
X017687Y011219D01*
X017634Y011266D01*
X017585Y011316D01*
X017538Y011368D01*
X017494Y011424D01*
X017453Y011481D01*
X017415Y011541D01*
X017381Y011603D01*
X017351Y011666D01*
X017324Y011731D01*
X017300Y011798D01*
X017281Y011866D01*
X017265Y011935D01*
X017253Y012004D01*
X017245Y012074D01*
X017241Y012145D01*
X017241Y012215D01*
X017245Y012286D01*
X017253Y012356D01*
X017265Y012425D01*
X017281Y012494D01*
X017300Y012562D01*
X017324Y012629D01*
X017351Y012694D01*
X017381Y012757D01*
X017415Y012819D01*
X017453Y012879D01*
X017494Y012936D01*
X017538Y012992D01*
X017585Y013044D01*
X017634Y013094D01*
X017687Y013141D01*
X017742Y013185D01*
X017800Y013226D01*
X017859Y013264D01*
X017921Y013298D01*
X017985Y013329D01*
X018050Y013356D01*
X018116Y013379D01*
X018184Y013399D01*
X018253Y013414D01*
X018322Y013426D01*
X018392Y013434D01*
X018463Y013438D01*
X018533Y013439D01*
X018604Y013435D01*
X018674Y013427D01*
X018744Y013415D01*
X018812Y013400D01*
X018880Y013380D01*
X018947Y013357D01*
X019012Y013330D01*
X019076Y013300D01*
X019138Y013266D01*
X019197Y013228D01*
X019255Y013188D01*
X019310Y013144D01*
X019363Y013097D01*
X019413Y013047D01*
X019460Y012994D01*
X019504Y012939D01*
X019497Y012934D01*
X019453Y012989D01*
X019406Y013041D01*
X019357Y013090D01*
X019304Y013137D01*
X019250Y013180D01*
X019192Y013221D01*
X019133Y013258D01*
X019072Y013292D01*
X019008Y013322D01*
X018944Y013349D01*
X018877Y013372D01*
X018810Y013391D01*
X018742Y013406D01*
X018673Y013418D01*
X018603Y013426D01*
X018533Y013430D01*
X018463Y013429D01*
X018393Y013425D01*
X018324Y013417D01*
X018255Y013406D01*
X018186Y013390D01*
X018119Y013371D01*
X018053Y013347D01*
X017988Y013320D01*
X017925Y013290D01*
X017864Y013256D01*
X017805Y013219D01*
X017747Y013178D01*
X017693Y013134D01*
X017641Y013088D01*
X017591Y013038D01*
X017544Y012986D01*
X017501Y012931D01*
X017460Y012874D01*
X017423Y012815D01*
X017389Y012753D01*
X017359Y012690D01*
X017332Y012625D01*
X017309Y012559D01*
X017290Y012492D01*
X017274Y012424D01*
X017262Y012355D01*
X017254Y012285D01*
X017250Y012215D01*
X017250Y012145D01*
X017254Y012075D01*
X017262Y012005D01*
X017274Y011936D01*
X017290Y011868D01*
X017309Y011801D01*
X017332Y011735D01*
X017359Y011670D01*
X017389Y011607D01*
X017423Y011545D01*
X017460Y011486D01*
X017501Y011429D01*
X017544Y011374D01*
X017591Y011322D01*
X017641Y011272D01*
X017693Y011226D01*
X017747Y011182D01*
X017805Y011141D01*
X017864Y011104D01*
X017925Y011070D01*
X017988Y011040D01*
X018053Y011013D01*
X018119Y010989D01*
X018186Y010970D01*
X018255Y010954D01*
X018324Y010943D01*
X018393Y010935D01*
X018463Y010931D01*
X018533Y010930D01*
X018603Y010934D01*
X018673Y010942D01*
X018742Y010954D01*
X018810Y010969D01*
X018877Y010988D01*
X018944Y011011D01*
X019008Y011038D01*
X019072Y011068D01*
X019133Y011102D01*
X019192Y011139D01*
X019250Y011180D01*
X019304Y011223D01*
X019357Y011270D01*
X019406Y011319D01*
X019453Y011371D01*
X019497Y011426D01*
X019490Y011431D01*
X019446Y011377D01*
X019400Y011325D01*
X019351Y011276D01*
X019299Y011230D01*
X019244Y011187D01*
X019187Y011147D01*
X019128Y011110D01*
X019067Y011076D01*
X019005Y011046D01*
X018940Y011020D01*
X018875Y010997D01*
X018808Y010978D01*
X018740Y010962D01*
X018671Y010951D01*
X018602Y010943D01*
X018533Y010939D01*
X018463Y010940D01*
X018394Y010944D01*
X018325Y010951D01*
X018256Y010963D01*
X018189Y010979D01*
X018122Y010998D01*
X018056Y011021D01*
X017992Y011048D01*
X017929Y011078D01*
X017868Y011112D01*
X017810Y011149D01*
X017753Y011189D01*
X017699Y011232D01*
X017647Y011279D01*
X017598Y011328D01*
X017551Y011380D01*
X017508Y011434D01*
X017468Y011491D01*
X017431Y011550D01*
X017397Y011611D01*
X017367Y011674D01*
X017340Y011738D01*
X017317Y011803D01*
X017298Y011870D01*
X017283Y011938D01*
X017271Y012007D01*
X017263Y012076D01*
X017259Y012145D01*
X017259Y012215D01*
X017263Y012284D01*
X017271Y012353D01*
X017283Y012422D01*
X017298Y012490D01*
X017317Y012557D01*
X017340Y012622D01*
X017367Y012686D01*
X017397Y012749D01*
X017431Y012810D01*
X017468Y012869D01*
X017508Y012926D01*
X017551Y012980D01*
X017598Y013032D01*
X017647Y013081D01*
X017699Y013128D01*
X017753Y013171D01*
X017810Y013211D01*
X017868Y013248D01*
X017929Y013282D01*
X017992Y013312D01*
X018056Y013339D01*
X018122Y013362D01*
X018189Y013381D01*
X018256Y013397D01*
X018325Y013409D01*
X018394Y013416D01*
X018463Y013420D01*
X018533Y013421D01*
X018602Y013417D01*
X018671Y013409D01*
X018740Y013398D01*
X018808Y013382D01*
X018875Y013363D01*
X018940Y013340D01*
X019005Y013314D01*
X019067Y013284D01*
X019128Y013250D01*
X019187Y013213D01*
X019244Y013173D01*
X019299Y013130D01*
X019351Y013084D01*
X019400Y013035D01*
X019446Y012983D01*
X019490Y012929D01*
X019483Y012923D01*
X019439Y012977D01*
X019393Y013028D01*
X019344Y013077D01*
X019293Y013123D01*
X019239Y013166D01*
X019182Y013206D01*
X019124Y013242D01*
X019063Y013276D01*
X019001Y013306D01*
X018937Y013332D01*
X018872Y013354D01*
X018806Y013373D01*
X018738Y013389D01*
X018670Y013400D01*
X018602Y013408D01*
X018533Y013412D01*
X018464Y013411D01*
X018395Y013407D01*
X018326Y013400D01*
X018258Y013388D01*
X018191Y013373D01*
X018124Y013353D01*
X018059Y013330D01*
X017996Y013304D01*
X017933Y013274D01*
X017873Y013241D01*
X017815Y013204D01*
X017758Y013164D01*
X017704Y013121D01*
X017653Y013075D01*
X017604Y013026D01*
X017558Y012974D01*
X017515Y012920D01*
X017475Y012864D01*
X017439Y012805D01*
X017405Y012745D01*
X017375Y012683D01*
X017349Y012619D01*
X017326Y012554D01*
X017307Y012487D01*
X017292Y012420D01*
X017280Y012352D01*
X017272Y012283D01*
X017268Y012215D01*
X017268Y012145D01*
X017272Y012077D01*
X017280Y012008D01*
X017292Y011940D01*
X017307Y011873D01*
X017326Y011806D01*
X017349Y011741D01*
X017375Y011677D01*
X017405Y011615D01*
X017439Y011555D01*
X017475Y011496D01*
X017515Y011440D01*
X017558Y011386D01*
X017604Y011334D01*
X017653Y011285D01*
X017704Y011239D01*
X017758Y011196D01*
X017815Y011156D01*
X017873Y011119D01*
X017933Y011086D01*
X017996Y011056D01*
X018059Y011030D01*
X018124Y011007D01*
X018191Y010987D01*
X018258Y010972D01*
X018326Y010960D01*
X018395Y010953D01*
X018464Y010949D01*
X018533Y010948D01*
X018602Y010952D01*
X018670Y010960D01*
X018738Y010971D01*
X018806Y010987D01*
X018872Y011006D01*
X018937Y011028D01*
X019001Y011054D01*
X019063Y011084D01*
X019124Y011118D01*
X019182Y011154D01*
X019239Y011194D01*
X019293Y011237D01*
X019344Y011283D01*
X019393Y011332D01*
X019439Y011383D01*
X019483Y011437D01*
X019475Y011442D01*
X019432Y011388D01*
X019386Y011337D01*
X019336Y011288D01*
X019285Y011242D01*
X019230Y011199D01*
X019173Y011159D01*
X019115Y011123D01*
X019054Y011089D01*
X018991Y011060D01*
X018927Y011034D01*
X018861Y011012D01*
X018794Y010993D01*
X018727Y010978D01*
X018658Y010967D01*
X018589Y010960D01*
X018520Y010957D01*
X018451Y010958D01*
X018381Y010963D01*
X018313Y010971D01*
X018245Y010984D01*
X018177Y011000D01*
X018111Y011021D01*
X018046Y011044D01*
X017982Y011072D01*
X017920Y011103D01*
X017860Y011138D01*
X017802Y011176D01*
X017746Y011217D01*
X017693Y011261D01*
X017642Y011308D01*
X017594Y011358D01*
X017549Y011411D01*
X017507Y011466D01*
X017468Y011523D01*
X017433Y011583D01*
X017401Y011644D01*
X017372Y011707D01*
X017347Y011772D01*
X017326Y011838D01*
X017308Y011905D01*
X017295Y011973D01*
X017285Y012042D01*
X017279Y012111D01*
X017277Y012180D01*
X017279Y012249D01*
X017285Y012318D01*
X017295Y012387D01*
X017308Y012455D01*
X017326Y012522D01*
X017347Y012588D01*
X017372Y012653D01*
X017401Y012716D01*
X017433Y012777D01*
X017468Y012837D01*
X017507Y012894D01*
X017549Y012949D01*
X017594Y013002D01*
X017642Y013052D01*
X017693Y013099D01*
X017746Y013143D01*
X017802Y013184D01*
X017860Y013222D01*
X017920Y013257D01*
X017982Y013288D01*
X018046Y013316D01*
X018111Y013339D01*
X018177Y013360D01*
X018245Y013376D01*
X018313Y013389D01*
X018381Y013397D01*
X018451Y013402D01*
X018520Y013403D01*
X018589Y013400D01*
X018658Y013393D01*
X018727Y013382D01*
X018794Y013367D01*
X018861Y013348D01*
X018927Y013326D01*
X018991Y013300D01*
X019054Y013271D01*
X019115Y013237D01*
X019173Y013201D01*
X019230Y013161D01*
X019285Y013118D01*
X019336Y013072D01*
X019386Y013023D01*
X019432Y012972D01*
X019475Y012918D01*
X019468Y012912D01*
X019425Y012966D01*
X019379Y013017D01*
X019330Y013066D01*
X019279Y013111D01*
X019225Y013154D01*
X019168Y013193D01*
X019110Y013230D01*
X019050Y013263D01*
X018987Y013292D01*
X018924Y013318D01*
X018858Y013340D01*
X018792Y013358D01*
X018725Y013373D01*
X018657Y013384D01*
X018588Y013391D01*
X018520Y013394D01*
X018451Y013393D01*
X018382Y013388D01*
X018314Y013380D01*
X018246Y013367D01*
X018180Y013351D01*
X018114Y013331D01*
X018049Y013307D01*
X017986Y013280D01*
X017925Y013249D01*
X017865Y013215D01*
X017807Y013177D01*
X017752Y013136D01*
X017699Y013092D01*
X017649Y013045D01*
X017601Y012996D01*
X017556Y012944D01*
X017514Y012889D01*
X017476Y012832D01*
X017441Y012773D01*
X017409Y012712D01*
X017380Y012649D01*
X017356Y012585D01*
X017334Y012519D01*
X017317Y012453D01*
X017304Y012385D01*
X017294Y012317D01*
X017288Y012249D01*
X017286Y012180D01*
X017288Y012111D01*
X017294Y012043D01*
X017304Y011975D01*
X017317Y011907D01*
X017334Y011841D01*
X017356Y011775D01*
X017380Y011711D01*
X017409Y011648D01*
X017441Y011587D01*
X017476Y011528D01*
X017514Y011471D01*
X017556Y011416D01*
X017601Y011364D01*
X017649Y011315D01*
X017699Y011268D01*
X017752Y011224D01*
X017807Y011183D01*
X017865Y011145D01*
X017925Y011111D01*
X017986Y011080D01*
X018049Y011053D01*
X018114Y011029D01*
X018180Y011009D01*
X018246Y010993D01*
X018314Y010980D01*
X018382Y010972D01*
X018451Y010967D01*
X018520Y010966D01*
X018588Y010969D01*
X018657Y010976D01*
X018725Y010987D01*
X018792Y011002D01*
X018858Y011020D01*
X018924Y011042D01*
X018987Y011068D01*
X019050Y011097D01*
X019110Y011130D01*
X019168Y011167D01*
X019225Y011206D01*
X019279Y011249D01*
X019330Y011294D01*
X019379Y011343D01*
X019425Y011394D01*
X019468Y011448D01*
M02*
