G75*
%MOIN*%
%OFA0B0*%
%FSLAX24Y24*%
%IPPOS*%
%LPD*%
%AMOC8*
5,1,8,0,0,1.08239X$1,22.5*
%
%ADD10C,0.0650*%
%ADD11C,0.1700*%
%ADD12OC8,0.0740*%
%ADD13R,0.0740X0.0740*%
%ADD14C,0.0740*%
%ADD15C,0.0560*%
%ADD16C,0.0160*%
%ADD17C,0.0436*%
D10*
X008000Y012680D03*
X008000Y013680D03*
X006000Y015680D03*
X005000Y015680D03*
D11*
X004713Y019830D03*
X005894Y021680D03*
X003531Y021680D03*
D12*
X010500Y004180D03*
X010500Y003180D03*
X011500Y003180D03*
X011500Y004180D03*
X012500Y004180D03*
X012500Y003180D03*
D13*
X019000Y015180D03*
D14*
X019000Y016180D03*
X019000Y017180D03*
X019000Y018180D03*
X019000Y019180D03*
X019000Y020180D03*
X019000Y021180D03*
X019000Y022180D03*
X019000Y012180D03*
X018000Y012180D03*
X016500Y009680D03*
X018000Y007680D03*
X019000Y007680D03*
X020500Y009680D03*
X020500Y005430D03*
X019000Y003680D03*
X018000Y003680D03*
X016500Y005430D03*
X016500Y001680D03*
X020500Y001680D03*
X007000Y017680D03*
X003000Y017680D03*
X003000Y014680D03*
X003000Y013680D03*
X003000Y012680D03*
X003000Y011680D03*
X003000Y010680D03*
X003000Y009680D03*
D15*
X009720Y009180D02*
X010280Y009180D01*
X010280Y008180D02*
X009720Y008180D01*
X009720Y010180D02*
X010280Y010180D01*
X010280Y011180D02*
X009720Y011180D01*
X009720Y012180D02*
X010280Y012180D01*
X010280Y013180D02*
X009720Y013180D01*
X009720Y014180D02*
X010280Y014180D01*
X010280Y015180D02*
X009720Y015180D01*
X009720Y016180D02*
X010280Y016180D01*
X010280Y017180D02*
X009720Y017180D01*
X009720Y018180D02*
X010280Y018180D01*
X010280Y019180D02*
X009720Y019180D01*
X009720Y020180D02*
X010280Y020180D01*
X010280Y021180D02*
X009720Y021180D01*
X012720Y021180D02*
X013280Y021180D01*
X013280Y020180D02*
X012720Y020180D01*
X012720Y019180D02*
X013280Y019180D01*
X013280Y018180D02*
X012720Y018180D01*
X012720Y017180D02*
X013280Y017180D01*
X013280Y016180D02*
X012720Y016180D01*
X012720Y015180D02*
X013280Y015180D01*
X013280Y014180D02*
X012720Y014180D01*
X012720Y013180D02*
X013280Y013180D01*
X013280Y012180D02*
X012720Y012180D01*
X012720Y011180D02*
X013280Y011180D01*
X013280Y010180D02*
X012720Y010180D01*
X012720Y009180D02*
X013280Y009180D01*
X013280Y008180D02*
X012720Y008180D01*
D16*
X002200Y000380D02*
X002200Y023976D01*
X021670Y023976D01*
X021670Y000380D01*
X002200Y000380D01*
X002200Y000447D02*
X021670Y000447D01*
X021670Y000605D02*
X002200Y000605D01*
X002200Y000764D02*
X021670Y000764D01*
X021670Y000922D02*
X002200Y000922D01*
X002200Y001081D02*
X021670Y001081D01*
X021670Y001239D02*
X020865Y001239D01*
X020823Y001197D02*
X020613Y001110D01*
X020387Y001110D01*
X020177Y001197D01*
X020017Y001357D01*
X019930Y001567D01*
X019930Y001793D01*
X020017Y002003D01*
X020177Y002163D01*
X020387Y002250D01*
X020613Y002250D01*
X020823Y002163D01*
X020983Y002003D01*
X021070Y001793D01*
X021070Y001567D01*
X020983Y001357D01*
X020823Y001197D01*
X021000Y001398D02*
X021670Y001398D01*
X021670Y001556D02*
X021066Y001556D01*
X021070Y001715D02*
X021670Y001715D01*
X021670Y001873D02*
X021037Y001873D01*
X020955Y002032D02*
X021670Y002032D01*
X021670Y002190D02*
X020758Y002190D01*
X020242Y002190D02*
X016758Y002190D01*
X016823Y002163D02*
X016613Y002250D01*
X016387Y002250D01*
X016177Y002163D01*
X016017Y002003D01*
X015930Y001793D01*
X015930Y001567D01*
X016017Y001357D01*
X016177Y001197D01*
X016387Y001110D01*
X016613Y001110D01*
X016823Y001197D01*
X016983Y001357D01*
X017070Y001567D01*
X017070Y001793D01*
X016983Y002003D01*
X016823Y002163D01*
X016955Y002032D02*
X020045Y002032D01*
X019963Y001873D02*
X017037Y001873D01*
X017070Y001715D02*
X019930Y001715D01*
X019934Y001556D02*
X017066Y001556D01*
X017000Y001398D02*
X020000Y001398D01*
X020135Y001239D02*
X016865Y001239D01*
X016135Y001239D02*
X002200Y001239D01*
X002200Y001398D02*
X016000Y001398D01*
X015934Y001556D02*
X011272Y001556D01*
X011237Y001521D02*
X011737Y002021D01*
X011780Y002124D01*
X011780Y002654D01*
X012000Y002874D01*
X012264Y002610D01*
X012736Y002610D01*
X013026Y002900D01*
X014056Y002900D01*
X014159Y002943D01*
X014237Y003021D01*
X014237Y003021D01*
X014737Y003521D01*
X014780Y003624D01*
X014780Y011736D01*
X014737Y011839D01*
X014659Y011917D01*
X013677Y012899D01*
X013687Y012908D01*
X013760Y013085D01*
X013760Y013275D01*
X013687Y013452D01*
X013552Y013587D01*
X013375Y013660D01*
X012625Y013660D01*
X012448Y013587D01*
X012313Y013452D01*
X012240Y013275D01*
X012240Y013085D01*
X012313Y012908D01*
X012448Y012773D01*
X012625Y012700D01*
X013084Y012700D01*
X013124Y012660D01*
X012625Y012660D01*
X012448Y012587D01*
X012321Y012460D01*
X011944Y012460D01*
X011841Y012417D01*
X011341Y011917D01*
X011263Y011839D01*
X011220Y011736D01*
X011220Y008541D01*
X011083Y008598D01*
X010917Y008598D01*
X010763Y008534D01*
X010684Y008455D01*
X010552Y008587D01*
X010375Y008660D01*
X009625Y008660D01*
X009448Y008587D01*
X009313Y008452D01*
X009240Y008275D01*
X009240Y008085D01*
X009313Y007908D01*
X009448Y007773D01*
X009625Y007700D01*
X010124Y007700D01*
X009263Y006839D01*
X009220Y006736D01*
X009220Y002124D01*
X009263Y002021D01*
X009341Y001943D01*
X009841Y001443D01*
X009944Y001400D01*
X011056Y001400D01*
X011159Y001443D01*
X011237Y001521D01*
X011430Y001715D02*
X015930Y001715D01*
X015963Y001873D02*
X011589Y001873D01*
X011742Y002032D02*
X016045Y002032D01*
X016242Y002190D02*
X011780Y002190D01*
X011780Y002349D02*
X021670Y002349D01*
X021670Y002507D02*
X011780Y002507D01*
X011792Y002666D02*
X012208Y002666D01*
X012050Y002824D02*
X011950Y002824D01*
X011500Y003180D02*
X011500Y002180D01*
X011000Y001680D01*
X010000Y001680D01*
X009500Y002180D01*
X009500Y006680D01*
X011000Y008180D01*
X011220Y007819D02*
X011220Y004706D01*
X011000Y004486D01*
X010736Y004750D01*
X010264Y004750D01*
X009930Y004416D01*
X009930Y003944D01*
X010194Y003680D01*
X009930Y003416D01*
X009930Y002944D01*
X010264Y002610D01*
X010736Y002610D01*
X011000Y002874D01*
X011220Y002654D01*
X011220Y002296D01*
X010884Y001960D01*
X010116Y001960D01*
X009780Y002296D01*
X009780Y006564D01*
X010978Y007762D01*
X011083Y007762D01*
X011220Y007819D01*
X011220Y007738D02*
X010954Y007738D01*
X010795Y007579D02*
X011220Y007579D01*
X011220Y007421D02*
X010637Y007421D01*
X010478Y007262D02*
X011220Y007262D01*
X011220Y007104D02*
X010320Y007104D01*
X010161Y006945D02*
X011220Y006945D01*
X011220Y006787D02*
X010003Y006787D01*
X009844Y006628D02*
X011220Y006628D01*
X011220Y006470D02*
X009780Y006470D01*
X009780Y006311D02*
X011220Y006311D01*
X011220Y006153D02*
X009780Y006153D01*
X009780Y005994D02*
X011220Y005994D01*
X011220Y005836D02*
X009780Y005836D01*
X009780Y005677D02*
X011220Y005677D01*
X011220Y005519D02*
X009780Y005519D01*
X009780Y005360D02*
X011220Y005360D01*
X011220Y005202D02*
X009780Y005202D01*
X009780Y005043D02*
X011220Y005043D01*
X011220Y004885D02*
X009780Y004885D01*
X009780Y004726D02*
X010240Y004726D01*
X010081Y004568D02*
X009780Y004568D01*
X009780Y004409D02*
X009930Y004409D01*
X009930Y004251D02*
X009780Y004251D01*
X009780Y004092D02*
X009930Y004092D01*
X009940Y003934D02*
X009780Y003934D01*
X009780Y003775D02*
X010099Y003775D01*
X010130Y003617D02*
X009780Y003617D01*
X009780Y003458D02*
X009972Y003458D01*
X009930Y003300D02*
X009780Y003300D01*
X009780Y003141D02*
X009930Y003141D01*
X009930Y002983D02*
X009780Y002983D01*
X009780Y002824D02*
X010050Y002824D01*
X010208Y002666D02*
X009780Y002666D01*
X009780Y002507D02*
X011220Y002507D01*
X011220Y002349D02*
X009780Y002349D01*
X009886Y002190D02*
X011114Y002190D01*
X010956Y002032D02*
X010044Y002032D01*
X009570Y001715D02*
X002200Y001715D01*
X002200Y001873D02*
X009411Y001873D01*
X009258Y002032D02*
X002200Y002032D01*
X002200Y002190D02*
X009220Y002190D01*
X009220Y002349D02*
X002200Y002349D01*
X002200Y002507D02*
X009220Y002507D01*
X009220Y002666D02*
X002200Y002666D01*
X002200Y002824D02*
X009220Y002824D01*
X009220Y002983D02*
X002200Y002983D01*
X002200Y003141D02*
X009220Y003141D01*
X009220Y003300D02*
X002200Y003300D01*
X002200Y003458D02*
X009220Y003458D01*
X009220Y003617D02*
X002200Y003617D01*
X002200Y003775D02*
X009220Y003775D01*
X009220Y003934D02*
X002200Y003934D01*
X002200Y004092D02*
X009220Y004092D01*
X009220Y004251D02*
X002200Y004251D01*
X002200Y004409D02*
X009220Y004409D01*
X009220Y004568D02*
X002200Y004568D01*
X002200Y004726D02*
X009220Y004726D01*
X009220Y004885D02*
X002200Y004885D01*
X002200Y005043D02*
X009220Y005043D01*
X009220Y005202D02*
X002200Y005202D01*
X002200Y005360D02*
X009220Y005360D01*
X009220Y005519D02*
X002200Y005519D01*
X002200Y005677D02*
X009220Y005677D01*
X009220Y005836D02*
X002200Y005836D01*
X002200Y005994D02*
X009220Y005994D01*
X009220Y006153D02*
X002200Y006153D01*
X002200Y006311D02*
X009220Y006311D01*
X009220Y006470D02*
X002200Y006470D01*
X002200Y006628D02*
X009220Y006628D01*
X009241Y006787D02*
X002200Y006787D01*
X002200Y006945D02*
X009369Y006945D01*
X009528Y007104D02*
X002200Y007104D01*
X002200Y007262D02*
X009686Y007262D01*
X009845Y007421D02*
X002200Y007421D01*
X002200Y007579D02*
X010003Y007579D01*
X009534Y007738D02*
X002200Y007738D01*
X002200Y007896D02*
X009325Y007896D01*
X009252Y008055D02*
X002200Y008055D01*
X002200Y008213D02*
X009240Y008213D01*
X009280Y008372D02*
X002200Y008372D01*
X002200Y008530D02*
X009391Y008530D01*
X009448Y008773D02*
X009313Y008908D01*
X009240Y009085D01*
X009240Y009275D01*
X009313Y009452D01*
X009448Y009587D01*
X009625Y009660D01*
X010375Y009660D01*
X010552Y009587D01*
X010687Y009452D01*
X010760Y009275D01*
X010760Y009085D01*
X010687Y008908D01*
X010552Y008773D01*
X010375Y008700D01*
X009625Y008700D01*
X009448Y008773D01*
X009374Y008847D02*
X002200Y008847D01*
X002200Y008689D02*
X011220Y008689D01*
X011220Y008847D02*
X010626Y008847D01*
X010727Y009006D02*
X011220Y009006D01*
X011220Y009164D02*
X010760Y009164D01*
X010741Y009323D02*
X011220Y009323D01*
X011220Y009481D02*
X010658Y009481D01*
X010425Y009640D02*
X011220Y009640D01*
X011220Y009798D02*
X010577Y009798D01*
X010552Y009773D02*
X010687Y009908D01*
X010760Y010085D01*
X010760Y010275D01*
X010687Y010452D01*
X010552Y010587D01*
X010375Y010660D01*
X009625Y010660D01*
X009448Y010587D01*
X009313Y010452D01*
X009240Y010275D01*
X009240Y010085D01*
X009313Y009908D01*
X009448Y009773D01*
X009625Y009700D01*
X010375Y009700D01*
X010552Y009773D01*
X010707Y009957D02*
X011220Y009957D01*
X011220Y010115D02*
X010760Y010115D01*
X010760Y010274D02*
X011220Y010274D01*
X011220Y010432D02*
X010695Y010432D01*
X010543Y010591D02*
X011220Y010591D01*
X011220Y010749D02*
X010494Y010749D01*
X010552Y010773D02*
X010687Y010908D01*
X010760Y011085D01*
X010760Y011275D01*
X010687Y011452D01*
X010552Y011587D01*
X010375Y011660D01*
X009625Y011660D01*
X009448Y011587D01*
X009313Y011452D01*
X009240Y011275D01*
X009240Y011085D01*
X009313Y010908D01*
X009448Y010773D01*
X009625Y010700D01*
X010375Y010700D01*
X010552Y010773D01*
X010686Y010908D02*
X011220Y010908D01*
X011220Y011066D02*
X010752Y011066D01*
X010760Y011225D02*
X011220Y011225D01*
X011220Y011383D02*
X010715Y011383D01*
X010597Y011542D02*
X011220Y011542D01*
X011220Y011700D02*
X010376Y011700D01*
X010375Y011700D02*
X010552Y011773D01*
X010687Y011908D01*
X010760Y012085D01*
X010760Y012275D01*
X010687Y012452D01*
X010552Y012587D01*
X010375Y012660D01*
X009625Y012660D01*
X009448Y012587D01*
X009313Y012452D01*
X009240Y012275D01*
X009240Y012085D01*
X009313Y011908D01*
X009448Y011773D01*
X009625Y011700D01*
X010375Y011700D01*
X010637Y011859D02*
X011283Y011859D01*
X011441Y012017D02*
X010732Y012017D01*
X010760Y012176D02*
X011600Y012176D01*
X011758Y012334D02*
X010736Y012334D01*
X010646Y012493D02*
X012354Y012493D01*
X012603Y012651D02*
X010397Y012651D01*
X010375Y012700D02*
X010552Y012773D01*
X010687Y012908D01*
X010760Y013085D01*
X010760Y013275D01*
X010687Y013452D01*
X010552Y013587D01*
X010375Y013660D01*
X009625Y013660D01*
X009448Y013587D01*
X009313Y013452D01*
X009240Y013275D01*
X009240Y013085D01*
X009313Y012908D01*
X009448Y012773D01*
X009625Y012700D01*
X010375Y012700D01*
X010588Y012810D02*
X012412Y012810D01*
X012288Y012968D02*
X010712Y012968D01*
X010760Y013127D02*
X012240Y013127D01*
X012244Y013285D02*
X010756Y013285D01*
X010690Y013444D02*
X012310Y013444D01*
X012485Y013602D02*
X010515Y013602D01*
X010522Y013761D02*
X012478Y013761D01*
X012448Y013773D02*
X012625Y013700D01*
X013375Y013700D01*
X013552Y013773D01*
X013687Y013908D01*
X013760Y014085D01*
X013760Y014275D01*
X013687Y014452D01*
X013552Y014587D01*
X013375Y014660D01*
X012625Y014660D01*
X012448Y014587D01*
X012313Y014452D01*
X012240Y014275D01*
X012240Y014085D01*
X012313Y013908D01*
X012448Y013773D01*
X012309Y013919D02*
X011102Y013919D01*
X011056Y013900D02*
X011159Y013943D01*
X012116Y014900D01*
X012321Y014900D01*
X012448Y014773D01*
X012625Y014700D01*
X013375Y014700D01*
X013552Y014773D01*
X013679Y014900D01*
X014220Y014900D01*
X014220Y012624D01*
X014263Y012521D01*
X015220Y011564D01*
X015220Y010624D01*
X015263Y010521D01*
X015948Y009836D01*
X015930Y009793D01*
X015930Y009567D01*
X016017Y009357D01*
X016177Y009197D01*
X016387Y009110D01*
X016613Y009110D01*
X016823Y009197D01*
X016983Y009357D01*
X017070Y009567D01*
X017070Y009793D01*
X016983Y010003D01*
X016823Y010163D01*
X016613Y010250D01*
X016387Y010250D01*
X016344Y010232D01*
X015780Y010796D01*
X015780Y011736D01*
X015737Y011839D01*
X015659Y011917D01*
X014780Y012796D01*
X014780Y015064D01*
X016159Y016443D01*
X016237Y016521D01*
X016280Y016624D01*
X016280Y021064D01*
X017116Y021900D01*
X018499Y021900D01*
X018517Y021857D01*
X018677Y021697D01*
X018718Y021680D01*
X018677Y021663D01*
X018517Y021503D01*
X018430Y021293D01*
X018430Y021067D01*
X018517Y020857D01*
X018677Y020697D01*
X018718Y020680D01*
X018677Y020663D01*
X018517Y020503D01*
X018430Y020293D01*
X018430Y020067D01*
X018517Y019857D01*
X018677Y019697D01*
X018718Y019680D01*
X018677Y019663D01*
X018517Y019503D01*
X018430Y019293D01*
X018430Y019067D01*
X018517Y018857D01*
X018677Y018697D01*
X018718Y018680D01*
X018677Y018663D01*
X018517Y018503D01*
X018430Y018293D01*
X018430Y018067D01*
X018517Y017857D01*
X018677Y017697D01*
X018718Y017680D01*
X018677Y017663D01*
X018517Y017503D01*
X018430Y017293D01*
X018430Y017067D01*
X018517Y016857D01*
X018677Y016697D01*
X018718Y016680D01*
X018677Y016663D01*
X018517Y016503D01*
X018430Y016293D01*
X018430Y016067D01*
X018517Y015857D01*
X018624Y015750D01*
X018547Y015750D01*
X018430Y015633D01*
X018430Y014727D01*
X018547Y014610D01*
X019453Y014610D01*
X019570Y014727D01*
X019570Y015633D01*
X019453Y015750D01*
X019376Y015750D01*
X019483Y015857D01*
X019570Y016067D01*
X019570Y016293D01*
X019483Y016503D01*
X019323Y016663D01*
X019282Y016680D01*
X019323Y016697D01*
X019483Y016857D01*
X019570Y017067D01*
X019570Y017293D01*
X019483Y017503D01*
X019323Y017663D01*
X019282Y017680D01*
X019323Y017697D01*
X019483Y017857D01*
X019570Y018067D01*
X019570Y018293D01*
X019483Y018503D01*
X019323Y018663D01*
X019282Y018680D01*
X019323Y018697D01*
X019483Y018857D01*
X019570Y019067D01*
X019570Y019293D01*
X019483Y019503D01*
X019323Y019663D01*
X019282Y019680D01*
X019323Y019697D01*
X019483Y019857D01*
X019570Y020067D01*
X019570Y020293D01*
X019483Y020503D01*
X019323Y020663D01*
X019282Y020680D01*
X019323Y020697D01*
X019483Y020857D01*
X019570Y021067D01*
X019570Y021293D01*
X019483Y021503D01*
X019323Y021663D01*
X019282Y021680D01*
X019323Y021697D01*
X019483Y021857D01*
X019570Y022067D01*
X019570Y022293D01*
X019483Y022503D01*
X019323Y022663D01*
X019113Y022750D01*
X018887Y022750D01*
X018677Y022663D01*
X018517Y022503D01*
X018499Y022460D01*
X016944Y022460D01*
X016841Y022417D01*
X016763Y022339D01*
X015763Y021339D01*
X015720Y021236D01*
X015720Y016796D01*
X014384Y015460D01*
X013679Y015460D01*
X013552Y015587D01*
X013375Y015660D01*
X012625Y015660D01*
X012448Y015587D01*
X012321Y015460D01*
X011944Y015460D01*
X011841Y015417D01*
X011763Y015339D01*
X010884Y014460D01*
X010679Y014460D01*
X010552Y014587D01*
X010375Y014660D01*
X009625Y014660D01*
X009477Y014599D01*
X008280Y015796D01*
X008280Y019236D01*
X008237Y019339D01*
X008159Y019417D01*
X007509Y020067D01*
X007406Y020110D01*
X005725Y020110D01*
X005691Y020235D01*
X005553Y020474D01*
X005357Y020670D01*
X005118Y020808D01*
X004851Y020880D01*
X004574Y020880D01*
X004307Y020808D01*
X004195Y020743D01*
X004127Y020811D01*
X004176Y020840D01*
X004372Y021035D01*
X004510Y021275D01*
X004581Y021542D01*
X004581Y021818D01*
X004510Y022085D01*
X004372Y022325D01*
X004176Y022520D01*
X003937Y022658D01*
X003670Y022730D01*
X003393Y022730D01*
X003126Y022658D01*
X002887Y022520D01*
X002691Y022325D01*
X002553Y022085D01*
X002481Y021818D01*
X002481Y021542D01*
X002553Y021275D01*
X002691Y021035D01*
X002887Y020840D01*
X003126Y020702D01*
X003393Y020630D01*
X003516Y020630D01*
X003799Y020347D01*
X003734Y020235D01*
X003663Y019968D01*
X003663Y019691D01*
X003734Y019424D01*
X003872Y019185D01*
X004068Y018989D01*
X004307Y018851D01*
X004574Y018780D01*
X004851Y018780D01*
X005118Y018851D01*
X005357Y018989D01*
X005553Y019185D01*
X005691Y019424D01*
X005725Y019550D01*
X007234Y019550D01*
X007720Y019064D01*
X007720Y016541D01*
X007583Y016598D01*
X007417Y016598D01*
X007263Y016534D01*
X007146Y016417D01*
X007082Y016263D01*
X007082Y016158D01*
X006525Y015601D01*
X006525Y015784D01*
X006445Y015977D01*
X006297Y016125D01*
X006104Y016205D01*
X005896Y016205D01*
X005703Y016125D01*
X005555Y015977D01*
X005500Y015845D01*
X005445Y015977D01*
X005297Y016125D01*
X005104Y016205D01*
X004896Y016205D01*
X004703Y016125D01*
X004555Y015977D01*
X004475Y015784D01*
X004475Y015576D01*
X004555Y015383D01*
X004703Y015235D01*
X004896Y015155D01*
X005079Y015155D01*
X004884Y014960D01*
X003501Y014960D01*
X003483Y015003D01*
X003323Y015163D01*
X003113Y015250D01*
X002887Y015250D01*
X002677Y015163D01*
X002517Y015003D01*
X002430Y014793D01*
X002430Y014567D01*
X002517Y014357D01*
X002677Y014197D01*
X002718Y014180D01*
X002677Y014163D01*
X002517Y014003D01*
X002430Y013793D01*
X002430Y013567D01*
X002517Y013357D01*
X002677Y013197D01*
X002718Y013180D01*
X002677Y013163D01*
X002517Y013003D01*
X002430Y012793D01*
X002430Y012567D01*
X002517Y012357D01*
X002677Y012197D01*
X002718Y012180D01*
X002677Y012163D01*
X002517Y012003D01*
X002430Y011793D01*
X002430Y011567D01*
X002517Y011357D01*
X002677Y011197D01*
X002718Y011180D01*
X002677Y011163D01*
X002517Y011003D01*
X002430Y010793D01*
X002430Y010567D01*
X002517Y010357D01*
X002677Y010197D01*
X002718Y010180D01*
X002677Y010163D01*
X002517Y010003D01*
X002430Y009793D01*
X002430Y009567D01*
X002517Y009357D01*
X002677Y009197D01*
X002887Y009110D01*
X003113Y009110D01*
X003323Y009197D01*
X003483Y009357D01*
X003501Y009400D01*
X007056Y009400D01*
X007159Y009443D01*
X008159Y010443D01*
X008237Y010521D01*
X008280Y010624D01*
X008280Y012228D01*
X008297Y012235D01*
X008445Y012383D01*
X008525Y012576D01*
X008525Y012784D01*
X008445Y012977D01*
X008297Y013125D01*
X008165Y013180D01*
X008297Y013235D01*
X008445Y013383D01*
X008525Y013576D01*
X008525Y013784D01*
X008445Y013977D01*
X008297Y014125D01*
X008104Y014205D01*
X007896Y014205D01*
X007703Y014125D01*
X007555Y013977D01*
X007548Y013960D01*
X007444Y013960D01*
X007341Y013917D01*
X007263Y013839D01*
X006763Y013339D01*
X006720Y013236D01*
X006720Y011796D01*
X006384Y011460D01*
X004116Y011460D01*
X003659Y011917D01*
X003556Y011960D01*
X003501Y011960D01*
X003483Y012003D01*
X003323Y012163D01*
X003282Y012180D01*
X003323Y012197D01*
X003483Y012357D01*
X003501Y012400D01*
X005556Y012400D01*
X005659Y012443D01*
X007478Y014262D01*
X007583Y014262D01*
X007737Y014326D01*
X007854Y014443D01*
X007918Y014597D01*
X007918Y014763D01*
X007854Y014917D01*
X007737Y015034D01*
X007583Y015098D01*
X007417Y015098D01*
X007263Y015034D01*
X007146Y014917D01*
X007082Y014763D01*
X007082Y014658D01*
X005384Y012960D01*
X003501Y012960D01*
X003483Y013003D01*
X003323Y013163D01*
X003282Y013180D01*
X003323Y013197D01*
X003483Y013357D01*
X003501Y013400D01*
X005056Y013400D01*
X005159Y013443D01*
X007478Y015762D01*
X007583Y015762D01*
X007720Y015819D01*
X007720Y015624D01*
X007763Y015521D01*
X009263Y014021D01*
X009269Y014015D01*
X009313Y013908D01*
X009448Y013773D01*
X009625Y013700D01*
X010375Y013700D01*
X010552Y013773D01*
X010679Y013900D01*
X011056Y013900D01*
X011000Y014180D02*
X012000Y015180D01*
X013000Y015180D01*
X014500Y015180D01*
X014500Y012680D01*
X015500Y011680D01*
X015500Y010680D01*
X016500Y009680D01*
X017035Y009481D02*
X019965Y009481D01*
X019930Y009567D02*
X020017Y009357D01*
X020177Y009197D01*
X020387Y009110D01*
X020613Y009110D01*
X020823Y009197D01*
X020983Y009357D01*
X021070Y009567D01*
X021070Y009793D01*
X020983Y010003D01*
X020823Y010163D01*
X020613Y010250D01*
X020387Y010250D01*
X020177Y010163D01*
X020017Y010003D01*
X019930Y009793D01*
X019930Y009567D01*
X019930Y009640D02*
X017070Y009640D01*
X017068Y009798D02*
X019932Y009798D01*
X019998Y009957D02*
X017002Y009957D01*
X016871Y010115D02*
X020129Y010115D01*
X020871Y010115D02*
X021670Y010115D01*
X021670Y009957D02*
X021002Y009957D01*
X021068Y009798D02*
X021670Y009798D01*
X021670Y009640D02*
X021070Y009640D01*
X021035Y009481D02*
X021670Y009481D01*
X021670Y009323D02*
X020949Y009323D01*
X020744Y009164D02*
X021670Y009164D01*
X021670Y009006D02*
X014780Y009006D01*
X014780Y009164D02*
X016256Y009164D01*
X016051Y009323D02*
X014780Y009323D01*
X014780Y009481D02*
X015965Y009481D01*
X015930Y009640D02*
X014780Y009640D01*
X014780Y009798D02*
X015932Y009798D01*
X015827Y009957D02*
X014780Y009957D01*
X014780Y010115D02*
X015669Y010115D01*
X015510Y010274D02*
X014780Y010274D01*
X014780Y010432D02*
X015352Y010432D01*
X015234Y010591D02*
X014780Y010591D01*
X014780Y010749D02*
X015220Y010749D01*
X015220Y010908D02*
X014780Y010908D01*
X014780Y011066D02*
X015220Y011066D01*
X015220Y011225D02*
X014780Y011225D01*
X014780Y011383D02*
X015220Y011383D01*
X015220Y011542D02*
X014780Y011542D01*
X014780Y011700D02*
X015084Y011700D01*
X014925Y011859D02*
X014717Y011859D01*
X014659Y011917D02*
X014659Y011917D01*
X014559Y012017D02*
X014767Y012017D01*
X014608Y012176D02*
X014400Y012176D01*
X014450Y012334D02*
X014242Y012334D01*
X014291Y012493D02*
X014083Y012493D01*
X014220Y012651D02*
X013925Y012651D01*
X013766Y012810D02*
X014220Y012810D01*
X014220Y012968D02*
X013712Y012968D01*
X013760Y013127D02*
X014220Y013127D01*
X014220Y013285D02*
X013756Y013285D01*
X013690Y013444D02*
X014220Y013444D01*
X014220Y013602D02*
X013515Y013602D01*
X013522Y013761D02*
X014220Y013761D01*
X014220Y013919D02*
X013691Y013919D01*
X013757Y014078D02*
X014220Y014078D01*
X014220Y014236D02*
X013760Y014236D01*
X013711Y014395D02*
X014220Y014395D01*
X014220Y014553D02*
X013586Y014553D01*
X013403Y014712D02*
X014220Y014712D01*
X014220Y014870D02*
X013649Y014870D01*
X013635Y015504D02*
X014428Y015504D01*
X014587Y015663D02*
X008413Y015663D01*
X008280Y015821D02*
X009400Y015821D01*
X009448Y015773D02*
X009625Y015700D01*
X010375Y015700D01*
X010552Y015773D01*
X010687Y015908D01*
X010760Y016085D01*
X010760Y016275D01*
X010687Y016452D01*
X010552Y016587D01*
X010375Y016660D01*
X009625Y016660D01*
X009448Y016587D01*
X009313Y016452D01*
X009240Y016275D01*
X009240Y016085D01*
X009313Y015908D01*
X009448Y015773D01*
X009448Y015587D02*
X009313Y015452D01*
X009240Y015275D01*
X009240Y015085D01*
X009313Y014908D01*
X009448Y014773D01*
X009625Y014700D01*
X010375Y014700D01*
X010552Y014773D01*
X010687Y014908D01*
X010760Y015085D01*
X010760Y015275D01*
X010687Y015452D01*
X010552Y015587D01*
X010375Y015660D01*
X009625Y015660D01*
X009448Y015587D01*
X009365Y015504D02*
X008572Y015504D01*
X008730Y015346D02*
X009269Y015346D01*
X009240Y015187D02*
X008889Y015187D01*
X009047Y015029D02*
X009263Y015029D01*
X009206Y014870D02*
X009351Y014870D01*
X009364Y014712D02*
X009597Y014712D01*
X009500Y014180D02*
X010000Y014180D01*
X011000Y014180D01*
X011294Y014078D02*
X012243Y014078D01*
X012240Y014236D02*
X011452Y014236D01*
X011611Y014395D02*
X012289Y014395D01*
X012414Y014553D02*
X011769Y014553D01*
X011928Y014712D02*
X012597Y014712D01*
X012351Y014870D02*
X012086Y014870D01*
X011611Y015187D02*
X010760Y015187D01*
X010737Y015029D02*
X011453Y015029D01*
X011294Y014870D02*
X010649Y014870D01*
X010403Y014712D02*
X011136Y014712D01*
X010977Y014553D02*
X010586Y014553D01*
X010731Y015346D02*
X011770Y015346D01*
X012365Y015504D02*
X010635Y015504D01*
X010600Y015821D02*
X012400Y015821D01*
X012448Y015773D02*
X012313Y015908D01*
X012240Y016085D01*
X012240Y016275D01*
X012313Y016452D01*
X012448Y016587D01*
X012625Y016660D01*
X013375Y016660D01*
X013552Y016587D01*
X013687Y016452D01*
X013760Y016275D01*
X013760Y016085D01*
X013687Y015908D01*
X013552Y015773D01*
X013375Y015700D01*
X012625Y015700D01*
X012448Y015773D01*
X012283Y015980D02*
X010717Y015980D01*
X010760Y016138D02*
X012240Y016138D01*
X012249Y016297D02*
X010751Y016297D01*
X010684Y016455D02*
X012316Y016455D01*
X012512Y016614D02*
X010488Y016614D01*
X010375Y016700D02*
X010552Y016773D01*
X010687Y016908D01*
X010760Y017085D01*
X010760Y017275D01*
X010687Y017452D01*
X010552Y017587D01*
X010375Y017660D01*
X009625Y017660D01*
X009448Y017587D01*
X009313Y017452D01*
X009240Y017275D01*
X009240Y017085D01*
X009313Y016908D01*
X009448Y016773D01*
X009625Y016700D01*
X010375Y016700D01*
X010549Y016772D02*
X012451Y016772D01*
X012448Y016773D02*
X012625Y016700D01*
X013375Y016700D01*
X013552Y016773D01*
X013687Y016908D01*
X013760Y017085D01*
X013760Y017275D01*
X013687Y017452D01*
X013552Y017587D01*
X013375Y017660D01*
X012625Y017660D01*
X012448Y017587D01*
X012313Y017452D01*
X012240Y017275D01*
X012240Y017085D01*
X012313Y016908D01*
X012448Y016773D01*
X012304Y016931D02*
X010696Y016931D01*
X010760Y017089D02*
X012240Y017089D01*
X012240Y017248D02*
X010760Y017248D01*
X010706Y017406D02*
X012294Y017406D01*
X012426Y017565D02*
X010574Y017565D01*
X010552Y017773D02*
X010687Y017908D01*
X010760Y018085D01*
X010760Y018275D01*
X010687Y018452D01*
X010552Y018587D01*
X010375Y018660D01*
X009625Y018660D01*
X009448Y018587D01*
X009313Y018452D01*
X009240Y018275D01*
X009240Y018085D01*
X009313Y017908D01*
X009448Y017773D01*
X009625Y017700D01*
X010375Y017700D01*
X010552Y017773D01*
X010431Y017723D02*
X012569Y017723D01*
X012625Y017700D02*
X013375Y017700D01*
X013552Y017773D01*
X013687Y017908D01*
X013760Y018085D01*
X013760Y018275D01*
X013687Y018452D01*
X013552Y018587D01*
X013375Y018660D01*
X012625Y018660D01*
X012448Y018587D01*
X012313Y018452D01*
X012240Y018275D01*
X012240Y018085D01*
X012313Y017908D01*
X012448Y017773D01*
X012625Y017700D01*
X012340Y017882D02*
X010660Y017882D01*
X010742Y018040D02*
X012258Y018040D01*
X012240Y018199D02*
X010760Y018199D01*
X010726Y018357D02*
X012274Y018357D01*
X012377Y018516D02*
X010623Y018516D01*
X010552Y018773D02*
X010687Y018908D01*
X010760Y019085D01*
X010760Y019275D01*
X010687Y019452D01*
X010552Y019587D01*
X010375Y019660D01*
X009625Y019660D01*
X009448Y019587D01*
X009313Y019452D01*
X009240Y019275D01*
X009240Y019085D01*
X009313Y018908D01*
X009448Y018773D01*
X009625Y018700D01*
X010375Y018700D01*
X010552Y018773D01*
X010611Y018833D02*
X012389Y018833D01*
X012448Y018773D02*
X012313Y018908D01*
X012240Y019085D01*
X012240Y019275D01*
X012313Y019452D01*
X012448Y019587D01*
X012625Y019660D01*
X013375Y019660D01*
X013552Y019587D01*
X013687Y019452D01*
X013760Y019275D01*
X013760Y019085D01*
X013687Y018908D01*
X013552Y018773D01*
X013375Y018700D01*
X012625Y018700D01*
X012448Y018773D01*
X012279Y018991D02*
X010721Y018991D01*
X010760Y019150D02*
X012240Y019150D01*
X012253Y019308D02*
X010747Y019308D01*
X010672Y019467D02*
X012328Y019467D01*
X012540Y019625D02*
X010460Y019625D01*
X010375Y019700D02*
X010552Y019773D01*
X010687Y019908D01*
X010760Y020085D01*
X010760Y020275D01*
X010687Y020452D01*
X010552Y020587D01*
X010375Y020660D01*
X009625Y020660D01*
X009448Y020587D01*
X009313Y020452D01*
X009240Y020275D01*
X009240Y020085D01*
X009313Y019908D01*
X009448Y019773D01*
X009625Y019700D01*
X010375Y019700D01*
X010562Y019784D02*
X012438Y019784D01*
X012448Y019773D02*
X012625Y019700D01*
X013375Y019700D01*
X013552Y019773D01*
X013687Y019908D01*
X013760Y020085D01*
X013760Y020275D01*
X013687Y020452D01*
X013552Y020587D01*
X013375Y020660D01*
X012625Y020660D01*
X012448Y020587D01*
X012313Y020452D01*
X012240Y020275D01*
X012240Y020085D01*
X012313Y019908D01*
X012448Y019773D01*
X012299Y019942D02*
X010701Y019942D01*
X010760Y020101D02*
X012240Y020101D01*
X012240Y020259D02*
X010760Y020259D01*
X010701Y020418D02*
X012299Y020418D01*
X012437Y020576D02*
X010563Y020576D01*
X010459Y020735D02*
X012541Y020735D01*
X012625Y020700D02*
X012448Y020773D01*
X012313Y020908D01*
X012240Y021085D01*
X012240Y021275D01*
X012313Y021452D01*
X012448Y021587D01*
X012625Y021660D01*
X013375Y021660D01*
X013552Y021587D01*
X013687Y021452D01*
X013760Y021275D01*
X013760Y021085D01*
X013687Y020908D01*
X013552Y020773D01*
X013375Y020700D01*
X012625Y020700D01*
X012328Y020893D02*
X010672Y020893D01*
X010687Y020908D02*
X010760Y021085D01*
X010760Y021275D01*
X010687Y021452D01*
X010552Y021587D01*
X010375Y021660D01*
X009625Y021660D01*
X009448Y021587D01*
X009313Y021452D01*
X009240Y021275D01*
X009240Y021085D01*
X009313Y020908D01*
X009448Y020773D01*
X009625Y020700D01*
X010375Y020700D01*
X010552Y020773D01*
X010687Y020908D01*
X010746Y021052D02*
X012254Y021052D01*
X012240Y021210D02*
X010760Y021210D01*
X010721Y021369D02*
X012279Y021369D01*
X012388Y021527D02*
X010612Y021527D01*
X009388Y021527D02*
X006940Y021527D01*
X006944Y021542D02*
X006872Y021275D01*
X006734Y021035D01*
X006538Y020840D01*
X006299Y020702D01*
X006032Y020630D01*
X005755Y020630D01*
X005488Y020702D01*
X005249Y020840D01*
X005053Y021035D01*
X004915Y021275D01*
X004844Y021542D01*
X004844Y021818D01*
X004915Y022085D01*
X005053Y022325D01*
X005249Y022520D01*
X005488Y022658D01*
X005755Y022730D01*
X006032Y022730D01*
X006299Y022658D01*
X006538Y022520D01*
X006734Y022325D01*
X006872Y022085D01*
X006944Y021818D01*
X006944Y021542D01*
X006944Y021686D02*
X016110Y021686D01*
X016268Y021844D02*
X006937Y021844D01*
X006894Y022003D02*
X016427Y022003D01*
X016585Y022161D02*
X006828Y022161D01*
X006737Y022320D02*
X016744Y022320D01*
X017000Y022180D02*
X019000Y022180D01*
X019350Y022637D02*
X021670Y022637D01*
X021670Y022795D02*
X002200Y022795D01*
X002200Y022637D02*
X003088Y022637D01*
X002845Y022478D02*
X002200Y022478D01*
X002200Y022320D02*
X002688Y022320D01*
X002597Y022161D02*
X002200Y022161D01*
X002200Y022003D02*
X002531Y022003D01*
X002488Y021844D02*
X002200Y021844D01*
X002200Y021686D02*
X002481Y021686D01*
X002485Y021527D02*
X002200Y021527D01*
X002200Y021369D02*
X002528Y021369D01*
X002590Y021210D02*
X002200Y021210D01*
X002200Y021052D02*
X002682Y021052D01*
X002834Y020893D02*
X002200Y020893D01*
X002200Y020735D02*
X003069Y020735D01*
X003531Y021011D02*
X004713Y019830D01*
X007350Y019830D01*
X008000Y019180D01*
X008000Y015680D01*
X009500Y014180D01*
X009206Y014078D02*
X008345Y014078D01*
X008469Y013919D02*
X009309Y013919D01*
X009478Y013761D02*
X008525Y013761D01*
X008525Y013602D02*
X009485Y013602D01*
X009310Y013444D02*
X008470Y013444D01*
X008347Y013285D02*
X009244Y013285D01*
X009240Y013127D02*
X008294Y013127D01*
X008449Y012968D02*
X009288Y012968D01*
X009412Y012810D02*
X008515Y012810D01*
X008525Y012651D02*
X009603Y012651D01*
X009354Y012493D02*
X008491Y012493D01*
X008396Y012334D02*
X009264Y012334D01*
X009240Y012176D02*
X008280Y012176D01*
X008280Y012017D02*
X009268Y012017D01*
X009363Y011859D02*
X008280Y011859D01*
X008280Y011700D02*
X009624Y011700D01*
X009403Y011542D02*
X008280Y011542D01*
X008280Y011383D02*
X009285Y011383D01*
X009240Y011225D02*
X008280Y011225D01*
X008280Y011066D02*
X009248Y011066D01*
X009314Y010908D02*
X008280Y010908D01*
X008280Y010749D02*
X009506Y010749D01*
X009457Y010591D02*
X008266Y010591D01*
X008148Y010432D02*
X009305Y010432D01*
X009240Y010274D02*
X007990Y010274D01*
X007831Y010115D02*
X009240Y010115D01*
X009293Y009957D02*
X007673Y009957D01*
X007514Y009798D02*
X009423Y009798D01*
X009575Y009640D02*
X007356Y009640D01*
X007197Y009481D02*
X009342Y009481D01*
X009259Y009323D02*
X003449Y009323D01*
X003244Y009164D02*
X009240Y009164D01*
X009273Y009006D02*
X002200Y009006D01*
X002200Y009164D02*
X002756Y009164D01*
X002551Y009323D02*
X002200Y009323D01*
X002200Y009481D02*
X002465Y009481D01*
X002430Y009640D02*
X002200Y009640D01*
X002200Y009798D02*
X002432Y009798D01*
X002498Y009957D02*
X002200Y009957D01*
X002200Y010115D02*
X002629Y010115D01*
X002600Y010274D02*
X002200Y010274D01*
X002200Y010432D02*
X002486Y010432D01*
X002430Y010591D02*
X002200Y010591D01*
X002200Y010749D02*
X002430Y010749D01*
X002477Y010908D02*
X002200Y010908D01*
X002200Y011066D02*
X002580Y011066D01*
X002649Y011225D02*
X002200Y011225D01*
X002200Y011383D02*
X002506Y011383D01*
X002440Y011542D02*
X002200Y011542D01*
X002200Y011700D02*
X002430Y011700D01*
X002457Y011859D02*
X002200Y011859D01*
X002200Y012017D02*
X002531Y012017D01*
X002707Y012176D02*
X002200Y012176D01*
X002200Y012334D02*
X002540Y012334D01*
X002461Y012493D02*
X002200Y012493D01*
X002200Y012651D02*
X002430Y012651D01*
X002437Y012810D02*
X002200Y012810D01*
X002200Y012968D02*
X002502Y012968D01*
X002640Y013127D02*
X002200Y013127D01*
X002200Y013285D02*
X002589Y013285D01*
X002481Y013444D02*
X002200Y013444D01*
X002200Y013602D02*
X002430Y013602D01*
X002430Y013761D02*
X002200Y013761D01*
X002200Y013919D02*
X002482Y013919D01*
X002591Y014078D02*
X002200Y014078D01*
X002200Y014236D02*
X002638Y014236D01*
X002501Y014395D02*
X002200Y014395D01*
X002200Y014553D02*
X002436Y014553D01*
X002430Y014712D02*
X002200Y014712D01*
X002200Y014870D02*
X002462Y014870D01*
X002542Y015029D02*
X002200Y015029D01*
X002200Y015187D02*
X002735Y015187D01*
X003265Y015187D02*
X004818Y015187D01*
X004953Y015029D02*
X003458Y015029D01*
X003000Y014680D02*
X005000Y014680D01*
X006000Y015680D01*
X006525Y015663D02*
X006587Y015663D01*
X006510Y015821D02*
X006745Y015821D01*
X006904Y015980D02*
X006443Y015980D01*
X006266Y016138D02*
X007062Y016138D01*
X007096Y016297D02*
X002200Y016297D01*
X002200Y016455D02*
X007184Y016455D01*
X007500Y016180D02*
X005000Y013680D01*
X003000Y013680D01*
X003409Y014078D02*
X005002Y014078D01*
X004884Y013960D02*
X003501Y013960D01*
X003483Y014003D01*
X003323Y014163D01*
X003282Y014180D01*
X003323Y014197D01*
X003483Y014357D01*
X003501Y014400D01*
X005056Y014400D01*
X005159Y014443D01*
X005878Y015162D01*
X005896Y015155D01*
X006079Y015155D01*
X004884Y013960D01*
X005160Y014236D02*
X003362Y014236D01*
X003499Y014395D02*
X005319Y014395D01*
X005269Y014553D02*
X005477Y014553D01*
X005428Y014712D02*
X005636Y014712D01*
X005586Y014870D02*
X005794Y014870D01*
X005745Y015029D02*
X005953Y015029D01*
X006428Y014712D02*
X007082Y014712D01*
X007126Y014870D02*
X006586Y014870D01*
X006745Y015029D02*
X007257Y015029D01*
X007062Y015346D02*
X007938Y015346D01*
X007780Y015504D02*
X007220Y015504D01*
X007379Y015663D02*
X007720Y015663D01*
X008097Y015187D02*
X006903Y015187D01*
X007500Y014680D02*
X005500Y012680D01*
X003000Y012680D01*
X003360Y013127D02*
X005551Y013127D01*
X005709Y013285D02*
X003411Y013285D01*
X003498Y012968D02*
X005392Y012968D01*
X005160Y013444D02*
X005868Y013444D01*
X006026Y013602D02*
X005318Y013602D01*
X005477Y013761D02*
X006185Y013761D01*
X006343Y013919D02*
X005635Y013919D01*
X005794Y014078D02*
X006502Y014078D01*
X006660Y014236D02*
X005952Y014236D01*
X006111Y014395D02*
X006819Y014395D01*
X006977Y014553D02*
X006269Y014553D01*
X006977Y013761D02*
X007185Y013761D01*
X007135Y013919D02*
X007345Y013919D01*
X007294Y014078D02*
X007655Y014078D01*
X007452Y014236D02*
X009048Y014236D01*
X008889Y014395D02*
X007806Y014395D01*
X007900Y014553D02*
X008731Y014553D01*
X008572Y014712D02*
X007918Y014712D01*
X007874Y014870D02*
X008414Y014870D01*
X008255Y015029D02*
X007743Y015029D01*
X008280Y015980D02*
X009283Y015980D01*
X009240Y016138D02*
X008280Y016138D01*
X008280Y016297D02*
X009249Y016297D01*
X009316Y016455D02*
X008280Y016455D01*
X008280Y016614D02*
X009512Y016614D01*
X009451Y016772D02*
X008280Y016772D01*
X008280Y016931D02*
X009304Y016931D01*
X009240Y017089D02*
X008280Y017089D01*
X008280Y017248D02*
X009240Y017248D01*
X009294Y017406D02*
X008280Y017406D01*
X008280Y017565D02*
X009426Y017565D01*
X009569Y017723D02*
X008280Y017723D01*
X008280Y017882D02*
X009340Y017882D01*
X009258Y018040D02*
X008280Y018040D01*
X008280Y018199D02*
X009240Y018199D01*
X009274Y018357D02*
X008280Y018357D01*
X008280Y018516D02*
X009377Y018516D01*
X009389Y018833D02*
X008280Y018833D01*
X008280Y018991D02*
X009279Y018991D01*
X009240Y019150D02*
X008280Y019150D01*
X008250Y019308D02*
X009253Y019308D01*
X009328Y019467D02*
X008109Y019467D01*
X007951Y019625D02*
X009540Y019625D01*
X009438Y019784D02*
X007792Y019784D01*
X007634Y019942D02*
X009299Y019942D01*
X009240Y020101D02*
X007428Y020101D01*
X007317Y019467D02*
X005702Y019467D01*
X005624Y019308D02*
X007476Y019308D01*
X007634Y019150D02*
X005517Y019150D01*
X005359Y018991D02*
X007720Y018991D01*
X007720Y018833D02*
X005048Y018833D01*
X004377Y018833D02*
X002200Y018833D01*
X002200Y018991D02*
X004066Y018991D01*
X003908Y019150D02*
X002200Y019150D01*
X002200Y019308D02*
X003801Y019308D01*
X003723Y019467D02*
X002200Y019467D01*
X002200Y019625D02*
X003680Y019625D01*
X003663Y019784D02*
X002200Y019784D01*
X002200Y019942D02*
X003663Y019942D01*
X003698Y020101D02*
X002200Y020101D01*
X002200Y020259D02*
X003748Y020259D01*
X003729Y020418D02*
X002200Y020418D01*
X002200Y020576D02*
X003570Y020576D01*
X003531Y021011D02*
X003531Y021680D01*
X004229Y020893D02*
X005196Y020893D01*
X005245Y020735D02*
X005431Y020735D01*
X005451Y020576D02*
X009437Y020576D01*
X009541Y020735D02*
X006356Y020735D01*
X006592Y020893D02*
X009328Y020893D01*
X009254Y021052D02*
X006743Y021052D01*
X006835Y021210D02*
X009240Y021210D01*
X009279Y021369D02*
X006897Y021369D01*
X006581Y022478D02*
X018506Y022478D01*
X018650Y022637D02*
X006337Y022637D01*
X005450Y022637D02*
X003975Y022637D01*
X004218Y022478D02*
X005207Y022478D01*
X005051Y022320D02*
X004375Y022320D01*
X004466Y022161D02*
X004959Y022161D01*
X004893Y022003D02*
X004532Y022003D01*
X004575Y021844D02*
X004851Y021844D01*
X004844Y021686D02*
X004581Y021686D01*
X004578Y021527D02*
X004848Y021527D01*
X004890Y021369D02*
X004535Y021369D01*
X004473Y021210D02*
X004953Y021210D01*
X005044Y021052D02*
X004381Y021052D01*
X005586Y020418D02*
X009299Y020418D01*
X009240Y020259D02*
X005677Y020259D01*
X006677Y018163D02*
X006517Y018003D01*
X006430Y017793D01*
X006430Y017567D01*
X006517Y017357D01*
X006677Y017197D01*
X006887Y017110D01*
X007113Y017110D01*
X007323Y017197D01*
X007483Y017357D01*
X007570Y017567D01*
X007570Y017793D01*
X007483Y018003D01*
X007323Y018163D01*
X007113Y018250D01*
X006887Y018250D01*
X006677Y018163D01*
X006762Y018199D02*
X003238Y018199D01*
X003323Y018163D02*
X003113Y018250D01*
X002887Y018250D01*
X002677Y018163D01*
X002517Y018003D01*
X002430Y017793D01*
X002430Y017567D01*
X002517Y017357D01*
X002677Y017197D01*
X002887Y017110D01*
X003113Y017110D01*
X003323Y017197D01*
X003483Y017357D01*
X003570Y017567D01*
X003570Y017793D01*
X003483Y018003D01*
X003323Y018163D01*
X003446Y018040D02*
X006554Y018040D01*
X006467Y017882D02*
X003533Y017882D01*
X003570Y017723D02*
X006430Y017723D01*
X006431Y017565D02*
X003569Y017565D01*
X003503Y017406D02*
X006497Y017406D01*
X006626Y017248D02*
X003374Y017248D01*
X002626Y017248D02*
X002200Y017248D01*
X002200Y017406D02*
X002497Y017406D01*
X002431Y017565D02*
X002200Y017565D01*
X002200Y017723D02*
X002430Y017723D01*
X002467Y017882D02*
X002200Y017882D01*
X002200Y018040D02*
X002554Y018040D01*
X002762Y018199D02*
X002200Y018199D01*
X002200Y018357D02*
X007720Y018357D01*
X007720Y018199D02*
X007238Y018199D01*
X007446Y018040D02*
X007720Y018040D01*
X007720Y017882D02*
X007533Y017882D01*
X007570Y017723D02*
X007720Y017723D01*
X007720Y017565D02*
X007569Y017565D01*
X007503Y017406D02*
X007720Y017406D01*
X007720Y017248D02*
X007374Y017248D01*
X007720Y017089D02*
X002200Y017089D01*
X002200Y016931D02*
X007720Y016931D01*
X007720Y016772D02*
X002200Y016772D01*
X002200Y016614D02*
X007720Y016614D01*
X007720Y018516D02*
X002200Y018516D01*
X002200Y018674D02*
X007720Y018674D01*
X008280Y018674D02*
X015720Y018674D01*
X015720Y018516D02*
X013623Y018516D01*
X013726Y018357D02*
X015720Y018357D01*
X015720Y018199D02*
X013760Y018199D01*
X013742Y018040D02*
X015720Y018040D01*
X015720Y017882D02*
X013660Y017882D01*
X013431Y017723D02*
X015720Y017723D01*
X015720Y017565D02*
X013574Y017565D01*
X013706Y017406D02*
X015720Y017406D01*
X015720Y017248D02*
X013760Y017248D01*
X013760Y017089D02*
X015720Y017089D01*
X015720Y016931D02*
X013696Y016931D01*
X013549Y016772D02*
X015696Y016772D01*
X015538Y016614D02*
X013488Y016614D01*
X013684Y016455D02*
X015379Y016455D01*
X015221Y016297D02*
X013751Y016297D01*
X013760Y016138D02*
X015062Y016138D01*
X014904Y015980D02*
X013717Y015980D01*
X013600Y015821D02*
X014745Y015821D01*
X015220Y015504D02*
X018430Y015504D01*
X018430Y015346D02*
X015062Y015346D01*
X014903Y015187D02*
X018430Y015187D01*
X018430Y015029D02*
X014780Y015029D01*
X014780Y014870D02*
X018430Y014870D01*
X018446Y014712D02*
X014780Y014712D01*
X014780Y014553D02*
X021670Y014553D01*
X021670Y014395D02*
X014780Y014395D01*
X014780Y014236D02*
X021670Y014236D01*
X021670Y014078D02*
X014780Y014078D01*
X014780Y013919D02*
X021670Y013919D01*
X021670Y013761D02*
X014780Y013761D01*
X014780Y013602D02*
X021670Y013602D01*
X021670Y013444D02*
X014780Y013444D01*
X014780Y013285D02*
X021670Y013285D01*
X021670Y013127D02*
X014780Y013127D01*
X014780Y012968D02*
X021670Y012968D01*
X021670Y012810D02*
X014780Y012810D01*
X014925Y012651D02*
X017665Y012651D01*
X017677Y012663D02*
X017517Y012503D01*
X017430Y012293D01*
X017430Y012067D01*
X017517Y011857D01*
X017677Y011697D01*
X017887Y011610D01*
X018113Y011610D01*
X018323Y011697D01*
X018483Y011857D01*
X018500Y011898D01*
X018517Y011857D01*
X018677Y011697D01*
X018887Y011610D01*
X019113Y011610D01*
X019323Y011697D01*
X019483Y011857D01*
X019570Y012067D01*
X019570Y012293D01*
X019483Y012503D01*
X019323Y012663D01*
X019113Y012750D01*
X018887Y012750D01*
X018677Y012663D01*
X018517Y012503D01*
X018500Y012462D01*
X018483Y012503D01*
X018323Y012663D01*
X018113Y012750D01*
X017887Y012750D01*
X017677Y012663D01*
X017512Y012493D02*
X015083Y012493D01*
X015242Y012334D02*
X017447Y012334D01*
X017430Y012176D02*
X015400Y012176D01*
X015559Y012017D02*
X017451Y012017D01*
X017516Y011859D02*
X015717Y011859D01*
X015780Y011700D02*
X017674Y011700D01*
X018326Y011700D02*
X018674Y011700D01*
X018516Y011859D02*
X018484Y011859D01*
X018488Y012493D02*
X018512Y012493D01*
X018665Y012651D02*
X018335Y012651D01*
X019335Y012651D02*
X021670Y012651D01*
X021670Y012493D02*
X019488Y012493D01*
X019553Y012334D02*
X021670Y012334D01*
X021670Y012176D02*
X019570Y012176D01*
X019549Y012017D02*
X021670Y012017D01*
X021670Y011859D02*
X019484Y011859D01*
X019326Y011700D02*
X021670Y011700D01*
X021670Y011542D02*
X015780Y011542D01*
X015780Y011383D02*
X021670Y011383D01*
X021670Y011225D02*
X015780Y011225D01*
X015780Y011066D02*
X021670Y011066D01*
X021670Y010908D02*
X015780Y010908D01*
X015827Y010749D02*
X021670Y010749D01*
X021670Y010591D02*
X015985Y010591D01*
X016144Y010432D02*
X021670Y010432D01*
X021670Y010274D02*
X016302Y010274D01*
X016949Y009323D02*
X020051Y009323D01*
X020256Y009164D02*
X016744Y009164D01*
X015854Y008417D02*
X015918Y008263D01*
X015918Y008158D01*
X016116Y007960D01*
X017499Y007960D01*
X017517Y008003D01*
X017677Y008163D01*
X017887Y008250D01*
X018113Y008250D01*
X018323Y008163D01*
X018483Y008003D01*
X018500Y007962D01*
X018517Y008003D01*
X018677Y008163D01*
X018887Y008250D01*
X019113Y008250D01*
X019323Y008163D01*
X019483Y008003D01*
X019570Y007793D01*
X019570Y007567D01*
X019483Y007357D01*
X019323Y007197D01*
X019113Y007110D01*
X018887Y007110D01*
X018677Y007197D01*
X018517Y007357D01*
X018500Y007398D01*
X018483Y007357D01*
X018323Y007197D01*
X018113Y007110D01*
X017887Y007110D01*
X017677Y007197D01*
X017517Y007357D01*
X017499Y007400D01*
X015944Y007400D01*
X015841Y007443D01*
X015522Y007762D01*
X015417Y007762D01*
X015263Y007826D01*
X015146Y007943D01*
X015082Y008097D01*
X015082Y008263D01*
X015146Y008417D01*
X015263Y008534D01*
X015417Y008598D01*
X015583Y008598D01*
X015737Y008534D01*
X015854Y008417D01*
X015873Y008372D02*
X021670Y008372D01*
X021670Y008530D02*
X015741Y008530D01*
X015918Y008213D02*
X017797Y008213D01*
X017568Y008055D02*
X016021Y008055D01*
X016000Y007680D02*
X015500Y008180D01*
X015193Y007896D02*
X014780Y007896D01*
X014780Y007738D02*
X015546Y007738D01*
X015705Y007579D02*
X014780Y007579D01*
X014780Y007421D02*
X015895Y007421D01*
X016000Y007680D02*
X018000Y007680D01*
X018203Y008213D02*
X018797Y008213D01*
X018568Y008055D02*
X018432Y008055D01*
X019203Y008213D02*
X021670Y008213D01*
X021670Y008055D02*
X019432Y008055D01*
X019527Y007896D02*
X021670Y007896D01*
X021670Y007738D02*
X019570Y007738D01*
X019570Y007579D02*
X021670Y007579D01*
X021670Y007421D02*
X019509Y007421D01*
X019388Y007262D02*
X021670Y007262D01*
X021670Y007104D02*
X014780Y007104D01*
X014780Y007262D02*
X017612Y007262D01*
X018388Y007262D02*
X018612Y007262D01*
X019985Y005677D02*
X017015Y005677D01*
X016983Y005753D02*
X016823Y005913D01*
X016613Y006000D01*
X016387Y006000D01*
X016177Y005913D01*
X016017Y005753D01*
X015930Y005543D01*
X015930Y005317D01*
X016017Y005107D01*
X016177Y004947D01*
X016387Y004860D01*
X016613Y004860D01*
X016823Y004947D01*
X016983Y005107D01*
X017070Y005317D01*
X017070Y005543D01*
X016983Y005753D01*
X016901Y005836D02*
X020099Y005836D01*
X020177Y005913D02*
X020017Y005753D01*
X019930Y005543D01*
X019930Y005317D01*
X020017Y005107D01*
X020177Y004947D01*
X020387Y004860D01*
X020613Y004860D01*
X020823Y004947D01*
X020983Y005107D01*
X021070Y005317D01*
X021070Y005543D01*
X020983Y005753D01*
X020823Y005913D01*
X020613Y006000D01*
X020387Y006000D01*
X020177Y005913D01*
X020372Y005994D02*
X016628Y005994D01*
X016372Y005994D02*
X014780Y005994D01*
X014780Y005836D02*
X016099Y005836D01*
X015985Y005677D02*
X014780Y005677D01*
X014780Y005519D02*
X015930Y005519D01*
X015930Y005360D02*
X014780Y005360D01*
X014780Y005202D02*
X015978Y005202D01*
X016081Y005043D02*
X014780Y005043D01*
X014780Y004885D02*
X016327Y004885D01*
X016673Y004885D02*
X020327Y004885D01*
X020081Y005043D02*
X016919Y005043D01*
X017022Y005202D02*
X019978Y005202D01*
X019930Y005360D02*
X017070Y005360D01*
X017070Y005519D02*
X019930Y005519D01*
X020628Y005994D02*
X021670Y005994D01*
X021670Y005836D02*
X020901Y005836D01*
X021015Y005677D02*
X021670Y005677D01*
X021670Y005519D02*
X021070Y005519D01*
X021070Y005360D02*
X021670Y005360D01*
X021670Y005202D02*
X021022Y005202D01*
X020919Y005043D02*
X021670Y005043D01*
X021670Y004885D02*
X020673Y004885D01*
X021670Y004726D02*
X014780Y004726D01*
X014780Y004568D02*
X015343Y004568D01*
X015417Y004598D02*
X015263Y004534D01*
X015146Y004417D01*
X015082Y004263D01*
X015082Y004097D01*
X015146Y003943D01*
X015263Y003826D01*
X015417Y003762D01*
X015522Y003762D01*
X015841Y003443D01*
X015944Y003400D01*
X017499Y003400D01*
X017517Y003357D01*
X017677Y003197D01*
X017887Y003110D01*
X018113Y003110D01*
X018323Y003197D01*
X018483Y003357D01*
X018500Y003398D01*
X018517Y003357D01*
X018677Y003197D01*
X018887Y003110D01*
X019113Y003110D01*
X019323Y003197D01*
X019483Y003357D01*
X019570Y003567D01*
X019570Y003793D01*
X019483Y004003D01*
X019323Y004163D01*
X019113Y004250D01*
X018887Y004250D01*
X018677Y004163D01*
X018517Y004003D01*
X018500Y003962D01*
X018483Y004003D01*
X018323Y004163D01*
X018113Y004250D01*
X017887Y004250D01*
X017677Y004163D01*
X017517Y004003D01*
X017499Y003960D01*
X016116Y003960D01*
X015918Y004158D01*
X015918Y004263D01*
X015854Y004417D01*
X015737Y004534D01*
X015583Y004598D01*
X015417Y004598D01*
X015657Y004568D02*
X021670Y004568D01*
X021670Y004409D02*
X015858Y004409D01*
X015918Y004251D02*
X021670Y004251D01*
X021670Y004092D02*
X019394Y004092D01*
X019512Y003934D02*
X021670Y003934D01*
X021670Y003775D02*
X019570Y003775D01*
X019570Y003617D02*
X021670Y003617D01*
X021670Y003458D02*
X019525Y003458D01*
X019426Y003300D02*
X021670Y003300D01*
X021670Y003141D02*
X019188Y003141D01*
X018812Y003141D02*
X018188Y003141D01*
X018426Y003300D02*
X018574Y003300D01*
X018000Y003680D02*
X016000Y003680D01*
X015500Y004180D01*
X015155Y003934D02*
X014780Y003934D01*
X014780Y004092D02*
X015084Y004092D01*
X015082Y004251D02*
X014780Y004251D01*
X014780Y004409D02*
X015142Y004409D01*
X015385Y003775D02*
X014780Y003775D01*
X014777Y003617D02*
X015668Y003617D01*
X015826Y003458D02*
X014674Y003458D01*
X014515Y003300D02*
X017574Y003300D01*
X017812Y003141D02*
X014357Y003141D01*
X014198Y002983D02*
X021670Y002983D01*
X021670Y002824D02*
X012950Y002824D01*
X012792Y002666D02*
X021670Y002666D01*
X018606Y004092D02*
X018394Y004092D01*
X017606Y004092D02*
X015984Y004092D01*
X014500Y003680D02*
X014000Y003180D01*
X012500Y003180D01*
X012870Y003617D02*
X014041Y003617D01*
X013884Y003460D02*
X014220Y003796D01*
X014220Y006504D01*
X014159Y006443D01*
X012780Y005064D01*
X012780Y004706D01*
X013070Y004416D01*
X013070Y003944D01*
X012806Y003680D01*
X013026Y003460D01*
X013884Y003460D01*
X014199Y003775D02*
X012901Y003775D01*
X013060Y003934D02*
X014220Y003934D01*
X014220Y004092D02*
X013070Y004092D01*
X013070Y004251D02*
X014220Y004251D01*
X014220Y004409D02*
X013070Y004409D01*
X012919Y004568D02*
X014220Y004568D01*
X014220Y004726D02*
X012780Y004726D01*
X012780Y004885D02*
X014220Y004885D01*
X014220Y005043D02*
X012780Y005043D01*
X012917Y005202D02*
X014220Y005202D01*
X014220Y005360D02*
X013076Y005360D01*
X013234Y005519D02*
X014220Y005519D01*
X014220Y005677D02*
X013393Y005677D01*
X013551Y005836D02*
X014220Y005836D01*
X014220Y005994D02*
X013710Y005994D01*
X013869Y006153D02*
X014220Y006153D01*
X014220Y006311D02*
X014027Y006311D01*
X014185Y006470D02*
X014220Y006470D01*
X014000Y006680D02*
X014000Y010680D01*
X013500Y011180D01*
X013000Y011180D01*
X013375Y011660D02*
X012625Y011660D01*
X012448Y011587D01*
X012313Y011452D01*
X012240Y011275D01*
X012240Y011085D01*
X012313Y010908D01*
X012448Y010773D01*
X012625Y010700D01*
X013375Y010700D01*
X013523Y010761D01*
X013720Y010564D01*
X013720Y010372D01*
X013687Y010452D01*
X013552Y010587D01*
X013375Y010660D01*
X012625Y010660D01*
X012448Y010587D01*
X012313Y010452D01*
X012240Y010275D01*
X012240Y010085D01*
X012313Y009908D01*
X012448Y009773D01*
X012625Y009700D01*
X013375Y009700D01*
X013552Y009773D01*
X013687Y009908D01*
X013720Y009988D01*
X013720Y009372D01*
X013687Y009452D01*
X013552Y009587D01*
X013375Y009660D01*
X012625Y009660D01*
X012448Y009587D01*
X012313Y009452D01*
X012240Y009275D01*
X012240Y009085D01*
X012313Y008908D01*
X012448Y008773D01*
X012625Y008700D01*
X013375Y008700D01*
X013552Y008773D01*
X013687Y008908D01*
X013720Y008988D01*
X013720Y008372D01*
X013687Y008452D01*
X013552Y008587D01*
X013375Y008660D01*
X012625Y008660D01*
X012448Y008587D01*
X012313Y008452D01*
X012240Y008275D01*
X012240Y008085D01*
X012313Y007908D01*
X012448Y007773D01*
X012625Y007700D01*
X013375Y007700D01*
X013552Y007773D01*
X013687Y007908D01*
X013720Y007988D01*
X013720Y006796D01*
X012263Y005339D01*
X012220Y005236D01*
X012220Y004706D01*
X012000Y004486D01*
X011780Y004706D01*
X011780Y011564D01*
X012116Y011900D01*
X012321Y011900D01*
X012448Y011773D01*
X012625Y011700D01*
X013375Y011700D01*
X013552Y011773D01*
X013687Y011908D01*
X013742Y012042D01*
X014220Y011564D01*
X014220Y010856D01*
X013737Y011339D01*
X013731Y011345D01*
X013687Y011452D01*
X013552Y011587D01*
X013375Y011660D01*
X013376Y011700D02*
X014084Y011700D01*
X014220Y011542D02*
X013597Y011542D01*
X013715Y011383D02*
X014220Y011383D01*
X014220Y011225D02*
X013851Y011225D01*
X014010Y011066D02*
X014220Y011066D01*
X014220Y010908D02*
X014168Y010908D01*
X013693Y010591D02*
X013543Y010591D01*
X013535Y010749D02*
X013494Y010749D01*
X013695Y010432D02*
X013720Y010432D01*
X013707Y009957D02*
X013720Y009957D01*
X013720Y009798D02*
X013577Y009798D01*
X013720Y009640D02*
X013425Y009640D01*
X013658Y009481D02*
X013720Y009481D01*
X013720Y008847D02*
X013626Y008847D01*
X013720Y008689D02*
X011780Y008689D01*
X011780Y008847D02*
X012374Y008847D01*
X012273Y009006D02*
X011780Y009006D01*
X011780Y009164D02*
X012240Y009164D01*
X012259Y009323D02*
X011780Y009323D01*
X011780Y009481D02*
X012342Y009481D01*
X012575Y009640D02*
X011780Y009640D01*
X011780Y009798D02*
X012423Y009798D01*
X012293Y009957D02*
X011780Y009957D01*
X011780Y010115D02*
X012240Y010115D01*
X012240Y010274D02*
X011780Y010274D01*
X011780Y010432D02*
X012305Y010432D01*
X012457Y010591D02*
X011780Y010591D01*
X011780Y010749D02*
X012506Y010749D01*
X012314Y010908D02*
X011780Y010908D01*
X011780Y011066D02*
X012248Y011066D01*
X012240Y011225D02*
X011780Y011225D01*
X011780Y011383D02*
X012285Y011383D01*
X012403Y011542D02*
X011780Y011542D01*
X011916Y011700D02*
X012624Y011700D01*
X012363Y011859D02*
X012075Y011859D01*
X012000Y012180D02*
X011500Y011680D01*
X011500Y004180D01*
X011099Y003775D02*
X010901Y003775D01*
X010806Y003680D02*
X011000Y003874D01*
X011194Y003680D01*
X011000Y003486D01*
X010806Y003680D01*
X010870Y003617D02*
X011130Y003617D01*
X011806Y003680D02*
X012000Y003874D01*
X012194Y003680D01*
X012000Y003486D01*
X011806Y003680D01*
X011870Y003617D02*
X012130Y003617D01*
X012099Y003775D02*
X011901Y003775D01*
X012500Y004180D02*
X012500Y005180D01*
X014000Y006680D01*
X013711Y006787D02*
X011780Y006787D01*
X011780Y006945D02*
X013720Y006945D01*
X013720Y007104D02*
X011780Y007104D01*
X011780Y007262D02*
X013720Y007262D01*
X013720Y007421D02*
X011780Y007421D01*
X011780Y007579D02*
X013720Y007579D01*
X013720Y007738D02*
X013466Y007738D01*
X013675Y007896D02*
X013720Y007896D01*
X013720Y008530D02*
X013609Y008530D01*
X014780Y008530D02*
X015259Y008530D01*
X015127Y008372D02*
X014780Y008372D01*
X014780Y008213D02*
X015082Y008213D01*
X015099Y008055D02*
X014780Y008055D01*
X014780Y008689D02*
X021670Y008689D01*
X021670Y008847D02*
X014780Y008847D01*
X014780Y006945D02*
X021670Y006945D01*
X021670Y006787D02*
X014780Y006787D01*
X014780Y006628D02*
X021670Y006628D01*
X021670Y006470D02*
X014780Y006470D01*
X014780Y006311D02*
X021670Y006311D01*
X021670Y006153D02*
X014780Y006153D01*
X013552Y006628D02*
X011780Y006628D01*
X011780Y006470D02*
X013394Y006470D01*
X013235Y006311D02*
X011780Y006311D01*
X011780Y006153D02*
X013077Y006153D01*
X012918Y005994D02*
X011780Y005994D01*
X011780Y005836D02*
X012760Y005836D01*
X012601Y005677D02*
X011780Y005677D01*
X011780Y005519D02*
X012443Y005519D01*
X012284Y005360D02*
X011780Y005360D01*
X011780Y005202D02*
X012220Y005202D01*
X012220Y005043D02*
X011780Y005043D01*
X011780Y004885D02*
X012220Y004885D01*
X012220Y004726D02*
X011780Y004726D01*
X011919Y004568D02*
X012081Y004568D01*
X011220Y004726D02*
X010760Y004726D01*
X010919Y004568D02*
X011081Y004568D01*
X011050Y002824D02*
X010950Y002824D01*
X010792Y002666D02*
X011208Y002666D01*
X009728Y001556D02*
X002200Y001556D01*
X003000Y009680D02*
X007000Y009680D01*
X008000Y010680D01*
X008000Y012680D01*
X007604Y012334D02*
X007280Y012334D01*
X007280Y012176D02*
X007720Y012176D01*
X007720Y012228D02*
X007720Y010796D01*
X006884Y009960D01*
X003501Y009960D01*
X003483Y010003D01*
X003323Y010163D01*
X003282Y010180D01*
X003323Y010197D01*
X003483Y010357D01*
X003570Y010567D01*
X003570Y010793D01*
X003483Y011003D01*
X003323Y011163D01*
X003282Y011180D01*
X003323Y011197D01*
X003455Y011329D01*
X003763Y011021D01*
X003841Y010943D01*
X003944Y010900D01*
X006556Y010900D01*
X006659Y010943D01*
X007159Y011443D01*
X007237Y011521D01*
X007280Y011624D01*
X007280Y013064D01*
X007577Y013361D01*
X007703Y013235D01*
X007835Y013180D01*
X007703Y013125D01*
X007555Y012977D01*
X007475Y012784D01*
X007475Y012576D01*
X007555Y012383D01*
X007703Y012235D01*
X007720Y012228D01*
X007720Y012017D02*
X007280Y012017D01*
X007280Y011859D02*
X007720Y011859D01*
X007720Y011700D02*
X007280Y011700D01*
X007246Y011542D02*
X007720Y011542D01*
X007720Y011383D02*
X007099Y011383D01*
X006941Y011225D02*
X007720Y011225D01*
X007720Y011066D02*
X006782Y011066D01*
X006574Y010908D02*
X007720Y010908D01*
X007673Y010749D02*
X003570Y010749D01*
X003570Y010591D02*
X007515Y010591D01*
X007356Y010432D02*
X003514Y010432D01*
X003400Y010274D02*
X007198Y010274D01*
X007039Y010115D02*
X003371Y010115D01*
X003523Y010908D02*
X003926Y010908D01*
X003718Y011066D02*
X003420Y011066D01*
X003351Y011225D02*
X003559Y011225D01*
X004000Y011180D02*
X003500Y011680D01*
X003000Y011680D01*
X003293Y012176D02*
X006720Y012176D01*
X006720Y012334D02*
X003460Y012334D01*
X003469Y012017D02*
X006720Y012017D01*
X006720Y011859D02*
X003717Y011859D01*
X003876Y011700D02*
X006624Y011700D01*
X006466Y011542D02*
X004034Y011542D01*
X004000Y011180D02*
X006500Y011180D01*
X007000Y011680D01*
X007000Y013180D01*
X007500Y013680D01*
X008000Y013680D01*
X007653Y013285D02*
X007501Y013285D01*
X007343Y013127D02*
X007706Y013127D01*
X007551Y012968D02*
X007280Y012968D01*
X007280Y012810D02*
X007485Y012810D01*
X007475Y012651D02*
X007280Y012651D01*
X007280Y012493D02*
X007509Y012493D01*
X006720Y012493D02*
X005709Y012493D01*
X005867Y012651D02*
X006720Y012651D01*
X006720Y012810D02*
X006026Y012810D01*
X006184Y012968D02*
X006720Y012968D01*
X006720Y013127D02*
X006343Y013127D01*
X006501Y013285D02*
X006740Y013285D01*
X006660Y013444D02*
X006868Y013444D01*
X006818Y013602D02*
X007026Y013602D01*
X005557Y015980D02*
X005443Y015980D01*
X005266Y016138D02*
X005734Y016138D01*
X004734Y016138D02*
X002200Y016138D01*
X002200Y015980D02*
X004557Y015980D01*
X004490Y015821D02*
X002200Y015821D01*
X002200Y015663D02*
X004475Y015663D01*
X004505Y015504D02*
X002200Y015504D01*
X002200Y015346D02*
X004592Y015346D01*
X010609Y008530D02*
X010759Y008530D01*
X011780Y008530D02*
X012391Y008530D01*
X012280Y008372D02*
X011780Y008372D01*
X011780Y008213D02*
X012240Y008213D01*
X012252Y008055D02*
X011780Y008055D01*
X011780Y007896D02*
X012325Y007896D01*
X012534Y007738D02*
X011780Y007738D01*
X014500Y011680D02*
X014500Y003680D01*
X014500Y011680D02*
X013000Y013180D01*
X013000Y012180D02*
X012000Y012180D01*
X013637Y011859D02*
X013925Y011859D01*
X013767Y012017D02*
X013732Y012017D01*
X014500Y015180D02*
X016000Y016680D01*
X016000Y021180D01*
X017000Y022180D01*
X017060Y021844D02*
X018530Y021844D01*
X018704Y021686D02*
X016902Y021686D01*
X016743Y021527D02*
X018541Y021527D01*
X018461Y021369D02*
X016585Y021369D01*
X016426Y021210D02*
X018430Y021210D01*
X018436Y021052D02*
X016280Y021052D01*
X016280Y020893D02*
X018502Y020893D01*
X018639Y020735D02*
X016280Y020735D01*
X016280Y020576D02*
X018590Y020576D01*
X018481Y020418D02*
X016280Y020418D01*
X016280Y020259D02*
X018430Y020259D01*
X018430Y020101D02*
X016280Y020101D01*
X016280Y019942D02*
X018482Y019942D01*
X018590Y019784D02*
X016280Y019784D01*
X016280Y019625D02*
X018639Y019625D01*
X018502Y019467D02*
X016280Y019467D01*
X016280Y019308D02*
X018436Y019308D01*
X018430Y019150D02*
X016280Y019150D01*
X016280Y018991D02*
X018461Y018991D01*
X018541Y018833D02*
X016280Y018833D01*
X016280Y018674D02*
X018703Y018674D01*
X018529Y018516D02*
X016280Y018516D01*
X016280Y018357D02*
X018456Y018357D01*
X018430Y018199D02*
X016280Y018199D01*
X016280Y018040D02*
X018441Y018040D01*
X018507Y017882D02*
X016280Y017882D01*
X016280Y017723D02*
X018651Y017723D01*
X018578Y017565D02*
X016280Y017565D01*
X016280Y017406D02*
X018477Y017406D01*
X018430Y017248D02*
X016280Y017248D01*
X016280Y017089D02*
X018430Y017089D01*
X018486Y016931D02*
X016280Y016931D01*
X016280Y016772D02*
X018602Y016772D01*
X018627Y016614D02*
X016276Y016614D01*
X016171Y016455D02*
X018497Y016455D01*
X018431Y016297D02*
X016013Y016297D01*
X015854Y016138D02*
X018430Y016138D01*
X018466Y015980D02*
X015696Y015980D01*
X015537Y015821D02*
X018553Y015821D01*
X018460Y015663D02*
X015379Y015663D01*
X015720Y018833D02*
X013611Y018833D01*
X013721Y018991D02*
X015720Y018991D01*
X015720Y019150D02*
X013760Y019150D01*
X013747Y019308D02*
X015720Y019308D01*
X015720Y019467D02*
X013672Y019467D01*
X013460Y019625D02*
X015720Y019625D01*
X015720Y019784D02*
X013562Y019784D01*
X013701Y019942D02*
X015720Y019942D01*
X015720Y020101D02*
X013760Y020101D01*
X013760Y020259D02*
X015720Y020259D01*
X015720Y020418D02*
X013701Y020418D01*
X013563Y020576D02*
X015720Y020576D01*
X015720Y020735D02*
X013459Y020735D01*
X013672Y020893D02*
X015720Y020893D01*
X015720Y021052D02*
X013746Y021052D01*
X013760Y021210D02*
X015720Y021210D01*
X015793Y021369D02*
X013721Y021369D01*
X013612Y021527D02*
X015951Y021527D01*
X019296Y021686D02*
X021670Y021686D01*
X021670Y021844D02*
X019470Y021844D01*
X019543Y022003D02*
X021670Y022003D01*
X021670Y022161D02*
X019570Y022161D01*
X019559Y022320D02*
X021670Y022320D01*
X021670Y022478D02*
X019494Y022478D01*
X019459Y021527D02*
X021670Y021527D01*
X021670Y021369D02*
X019539Y021369D01*
X019570Y021210D02*
X021670Y021210D01*
X021670Y021052D02*
X019564Y021052D01*
X019498Y020893D02*
X021670Y020893D01*
X021670Y020735D02*
X019361Y020735D01*
X019410Y020576D02*
X021670Y020576D01*
X021670Y020418D02*
X019519Y020418D01*
X019570Y020259D02*
X021670Y020259D01*
X021670Y020101D02*
X019570Y020101D01*
X019518Y019942D02*
X021670Y019942D01*
X021670Y019784D02*
X019410Y019784D01*
X019361Y019625D02*
X021670Y019625D01*
X021670Y019467D02*
X019498Y019467D01*
X019564Y019308D02*
X021670Y019308D01*
X021670Y019150D02*
X019570Y019150D01*
X019539Y018991D02*
X021670Y018991D01*
X021670Y018833D02*
X019459Y018833D01*
X019297Y018674D02*
X021670Y018674D01*
X021670Y018516D02*
X019471Y018516D01*
X019544Y018357D02*
X021670Y018357D01*
X021670Y018199D02*
X019570Y018199D01*
X019559Y018040D02*
X021670Y018040D01*
X021670Y017882D02*
X019493Y017882D01*
X019349Y017723D02*
X021670Y017723D01*
X021670Y017565D02*
X019422Y017565D01*
X019523Y017406D02*
X021670Y017406D01*
X021670Y017248D02*
X019570Y017248D01*
X019570Y017089D02*
X021670Y017089D01*
X021670Y016931D02*
X019514Y016931D01*
X019398Y016772D02*
X021670Y016772D01*
X021670Y016614D02*
X019373Y016614D01*
X019503Y016455D02*
X021670Y016455D01*
X021670Y016297D02*
X019569Y016297D01*
X019570Y016138D02*
X021670Y016138D01*
X021670Y015980D02*
X019534Y015980D01*
X019447Y015821D02*
X021670Y015821D01*
X021670Y015663D02*
X019540Y015663D01*
X019570Y015504D02*
X021670Y015504D01*
X021670Y015346D02*
X019570Y015346D01*
X019570Y015187D02*
X021670Y015187D01*
X021670Y015029D02*
X019570Y015029D01*
X019570Y014870D02*
X021670Y014870D01*
X021670Y014712D02*
X019554Y014712D01*
X021670Y022954D02*
X002200Y022954D01*
X002200Y023112D02*
X021670Y023112D01*
X021670Y023271D02*
X002200Y023271D01*
X002200Y023429D02*
X021670Y023429D01*
X021670Y023588D02*
X002200Y023588D01*
X002200Y023746D02*
X021670Y023746D01*
X021670Y023905D02*
X002200Y023905D01*
D17*
X007500Y016180D03*
X007500Y014680D03*
X011000Y008180D03*
X015500Y008180D03*
X015500Y004180D03*
M02*
